<?xml version="1.0" encoding="utf-8"?>
<!-- Generator: Adobe Illustrator 22.1.0, SVG Export Plug-In . SVG Version: 6.00 Build 0)  -->
<svg version="1.1" id="Layer_1" xmlns="http://www.w3.org/2000/svg" xmlns:xlink="http://www.w3.org/1999/xlink" x="0px" y="0px"
	 viewBox="0 0 700 400" style="enable-background:new 0 0 700 400;" xml:space="preserve">
<style type="text/css">
	.st0{fill:#FFFFFF;}
	.st1{opacity:0.1;fill:none;stroke:#FFFFFF;stroke-width:5.74;stroke-miterlimit:10;enable-background:new    ;}
	.st2{fill:#008080;}
	.st3{fill:#014462;}
	.st4{fill:none;stroke:#014462;stroke-width:5.13;stroke-miterlimit:10;}
	.st5{enable-background:new    ;}
</style>
<rect class="st0" width="700" height="400"/>
<title>Burglary_Slider_v1</title>
<path class="st1" d="M402.5,271l0.1,0.2C402.7,271.1,402.6,271,402.5,271L402.5,271z"/>
<path class="st2" d="M508.3,360.9c3.5,0,6.3-2.9,6.4-6.4V209.2h28.4l0,0c3.2-0.1,5.6-2.7,5.6-5.9c0-1.4-0.6-2.8-1.6-3.8l0,0
	l-0.1-0.1l-0.1-0.1l-54.2-54.3V82.2c0-3.2-2.5-5.7-5.7-5.8h-30.9c-3.2,0-5.7,2.6-5.8,5.8v20.7l-32.6-32.5c-4.6-4.6-5.5-5.4-8.2-5.5
	c-2.7,0.1-3.6,0.9-8.2,5.5l-32.6,32.5L326.5,145l-54.2,54.3l-0.1,0.1l-0.1,0.1l0,0c-2.2,2.3-2.1,5.9,0.2,8.1c1,1,2.4,1.5,3.8,1.6
	l0,0h28.4v145.4c0,3.5,2.9,6.3,6.4,6.4L508.3,360.9z"/>
<g>
	<path class="st3" d="M372.9,226.2h19.3c4.4,0,7.9,3.5,7.9,7.9c0,0,0,0,0,0v19.3l0,0h-27.2l0,0V226.2L372.9,226.2z"/>
	<path class="st3" d="M342.8,226.2h19.3l0,0v27.2l0,0h-27.2l0,0v-19.3C334.9,229.7,338.4,226.2,342.8,226.2L342.8,226.2z"/>
	<path class="st3" d="M372.9,261.7h27.2l0,0V281c0,4.4-3.5,7.9-7.9,7.9l0,0h-19.3l0,0V261.7L372.9,261.7z"/>
	<path class="st3" d="M334.9,261.7h27.2l0,0v27.2l0,0h-19.3c-4.4,0-7.9-3.5-7.9-7.9l0,0V261.7L334.9,261.7z"/>
</g>
<line class="st4" x1="541.3" y1="359.5" x2="665.2" y2="359.5"/>
<path class="st3" d="M434.2,268.6h42.2c3.8,0,6.8,3.1,6.8,6.8v85.5l0,0h-55.9l0,0v-85.5C427.4,271.6,430.5,268.6,434.2,268.6
	C434.2,268.6,434.2,268.6,434.2,268.6z"/>
<g class="st5">
	<path class="st2" d="M70.4,73.5h-5.1v8.7h-8.7v-8.7h-18v-6.2l18.5-27.2h8.2v26.5h5.1V73.5z M56.7,66.6v-7.1c0-1.2,0-2.9,0.1-5.2
		c0.1-2.3,0.2-3.6,0.2-3.9h-0.2c-0.7,1.6-1.6,3.1-2.6,4.6l-7.7,11.7H56.7z"/>
	<path class="st2" d="M103.2,82.2H73.7V76l10.6-10.7c3.1-3.2,5.2-5.4,6.1-6.7c1-1.2,1.7-2.4,2.1-3.4c0.4-1.1,0.6-2.2,0.6-3.3
		c0-1.7-0.5-2.9-1.4-3.8c-0.9-0.8-2.2-1.2-3.7-1.2c-1.6,0-3.2,0.4-4.8,1.1c-1.5,0.7-3.1,1.8-4.8,3.2l-4.8-5.7c2.1-1.8,3.8-3,5.2-3.7
		c1.4-0.7,2.9-1.3,4.5-1.7c1.6-0.4,3.4-0.6,5.4-0.6c2.6,0,5,0.5,7,1.4c2,1,3.6,2.3,4.7,4c1.1,1.7,1.7,3.7,1.7,5.9
		c0,1.9-0.3,3.8-1,5.5c-0.7,1.7-1.7,3.4-3.2,5.2s-4,4.3-7.6,7.6l-5.4,5.1v0.4h18.4V82.2z"/>
	<path class="st2" d="M126.9,52.7c0,4.4-0.9,7.7-2.6,10c-1.7,2.2-4.2,3.3-7.5,3.3c-3.2,0-5.6-1.1-7.3-3.4c-1.7-2.3-2.6-5.6-2.6-9.9
		c0-8.8,3.3-13.2,9.9-13.2c3.2,0,5.7,1.1,7.5,3.4C126,45.2,126.9,48.4,126.9,52.7z M114.1,52.7c0,2.4,0.2,4.3,0.6,5.5
		c0.4,1.2,1.1,1.8,2.1,1.8c1.8,0,2.8-2.4,2.8-7.3c0-4.8-0.9-7.2-2.8-7.2c-1,0-1.7,0.6-2.1,1.8C114.3,48.5,114.1,50.3,114.1,52.7z
		 M146.7,40.1l-23.4,42.1h-6.9l23.4-42.1H146.7z M156.4,69.5c0,4.4-0.9,7.7-2.6,9.9c-1.7,2.2-4.2,3.3-7.5,3.3
		c-3.2,0-5.6-1.1-7.3-3.4c-1.7-2.3-2.6-5.6-2.6-9.8c0-8.8,3.3-13.2,9.9-13.2c3.2,0,5.7,1.1,7.5,3.4C155.5,62,156.4,65.3,156.4,69.5z
		 M143.6,69.5c0,2.4,0.2,4.3,0.6,5.5c0.4,1.2,1.1,1.8,2.1,1.8c1.8,0,2.8-2.4,2.8-7.3c0-4.8-0.9-7.2-2.8-7.2c-1,0-1.7,0.6-2.1,1.8
		C143.8,65.3,143.6,67.1,143.6,69.5z"/>
</g>
<g class="st5">
	<path class="st2" d="M40.4,96.8h6.7c3,0,5.2,0.4,6.6,1.3c1.4,0.9,2.1,2.2,2.1,4.1c0,1.3-0.3,2.3-0.9,3.1s-1.4,1.3-2.4,1.5v0.1
		c1.4,0.3,2.3,0.9,2.9,1.7s0.9,1.9,0.9,3.3c0,2-0.7,3.5-2.1,4.6s-3.3,1.6-5.7,1.6h-8V96.8z M44.9,105.3h2.6c1.2,0,2.1-0.2,2.7-0.6
		s0.8-1,0.8-1.9c0-0.8-0.3-1.4-0.9-1.8s-1.6-0.5-2.8-0.5h-2.4V105.3z M44.9,108.9v5.6h3c1.2,0,2.2-0.2,2.8-0.7s0.9-1.2,0.9-2.2
		c0-1.8-1.3-2.7-3.8-2.7H44.9z"/>
	<path class="st2" d="M71.8,118.2l-0.6-2.1H71c-0.5,0.8-1.2,1.4-2,1.8c-0.9,0.4-1.9,0.6-3,0.6c-1.9,0-3.4-0.5-4.4-1.5
		s-1.5-2.5-1.5-4.4v-10.7h4.5v9.6c0,1.2,0.2,2.1,0.6,2.7s1.1,0.9,2,0.9c1.2,0,2.2-0.4,2.7-1.3c0.6-0.8,0.8-2.2,0.8-4.2v-7.7h4.5
		v16.4H71.8z"/>
	<path class="st2" d="M89,101.5c0.6,0,1.1,0,1.5,0.1l-0.3,4.2c-0.4-0.1-0.8-0.1-1.3-0.1c-1.4,0-2.5,0.4-3.3,1.1s-1.2,1.8-1.2,3.1
		v8.3h-4.5v-16.4h3.4l0.7,2.8h0.2c0.5-0.9,1.2-1.7,2.1-2.2S88,101.5,89,101.5z"/>
	<path class="st2" d="M107.8,101.8v2.3l-2.6,0.7c0.5,0.7,0.7,1.6,0.7,2.5c0,1.8-0.6,3.1-1.8,4.1c-1.2,1-2.9,1.5-5.1,1.5l-0.8,0
		l-0.7-0.1c-0.5,0.4-0.7,0.7-0.7,1.2c0,0.6,0.8,1,2.5,1h2.8c1.8,0,3.2,0.4,4.1,1.2s1.4,1.9,1.4,3.4c0,1.9-0.8,3.4-2.4,4.5
		s-3.9,1.6-6.9,1.6c-2.3,0-4-0.4-5.2-1.2c-1.2-0.8-1.8-1.9-1.8-3.3c0-1,0.3-1.8,0.9-2.5s1.5-1.1,2.7-1.4c-0.5-0.2-0.9-0.5-1.2-1
		s-0.5-0.9-0.5-1.4c0-0.6,0.2-1.1,0.5-1.6c0.4-0.4,0.9-0.8,1.6-1.2c-0.9-0.4-1.5-1-2-1.8s-0.8-1.8-0.8-2.9c0-1.8,0.6-3.2,1.7-4.1
		s2.8-1.5,5-1.5c0.5,0,1,0,1.6,0.1c0.6,0.1,1,0.1,1.2,0.2H107.8z M95.1,120.5c0,0.6,0.3,1.1,0.9,1.5s1.4,0.5,2.5,0.5
		c1.6,0,2.9-0.2,3.8-0.7s1.4-1,1.4-1.8c0-0.6-0.3-1-0.8-1.3s-1.4-0.4-2.5-0.4H98c-0.8,0-1.5,0.2-2.1,0.6S95.1,119.9,95.1,120.5z
		 M96.8,107.2c0,0.9,0.2,1.6,0.6,2.1s1,0.8,1.9,0.8c0.8,0,1.5-0.3,1.8-0.8s0.6-1.2,0.6-2.1c0-2-0.8-3-2.4-3
		C97.6,104.2,96.8,105.2,96.8,107.2z"/>
	<path class="st2" d="M114.9,118.2h-4.5V95.4h4.5V118.2z"/>
	<path class="st2" d="M130,118.2l-0.9-2.2h-0.1c-0.8,0.9-1.5,1.6-2.3,2c-0.8,0.4-1.8,0.5-3.1,0.5c-1.6,0-2.8-0.4-3.7-1.3
		s-1.4-2.2-1.4-3.8c0-1.7,0.6-3,1.8-3.8c1.2-0.8,3-1.3,5.5-1.4l2.8-0.1v-0.7c0-1.7-0.8-2.5-2.5-2.5c-1.3,0-2.8,0.4-4.6,1.2l-1.5-3
		c1.9-1,4-1.5,6.3-1.5c2.2,0,3.9,0.5,5.1,1.4s1.8,2.4,1.8,4.4v10.9H130z M128.7,110.6l-1.7,0.1c-1.3,0-2.3,0.3-2.9,0.7s-1,1.1-1,2
		c0,1.3,0.7,1.9,2.2,1.9c1,0,1.9-0.3,2.5-0.9s0.9-1.4,0.9-2.4V110.6z"/>
	<path class="st2" d="M146.9,101.5c0.6,0,1.1,0,1.5,0.1l-0.3,4.2c-0.4-0.1-0.8-0.1-1.3-0.1c-1.4,0-2.5,0.4-3.3,1.1s-1.2,1.8-1.2,3.1
		v8.3h-4.5v-16.4h3.4l0.7,2.8h0.2c0.5-0.9,1.2-1.7,2.1-2.2S145.9,101.5,146.9,101.5z"/>
	<path class="st2" d="M151.2,97.6c0-1.5,0.8-2.2,2.4-2.2s2.4,0.7,2.4,2.2c0,0.7-0.2,1.2-0.6,1.6c-0.4,0.4-1,0.6-1.8,0.6
		C152,99.8,151.2,99.1,151.2,97.6z M155.8,118.2h-4.5v-16.4h4.5V118.2z"/>
	<path class="st2" d="M167.9,118.5c-2.6,0-4.7-0.7-6.2-2.2s-2.2-3.5-2.2-6.2c0-2.7,0.7-4.9,2.1-6.4s3.3-2.2,5.7-2.2
		c2.3,0,4.1,0.7,5.4,2s1.9,3.1,1.9,5.5v2.2h-10.6c0,1.3,0.4,2.3,1.1,3s1.7,1.1,3,1.1c1,0,1.9-0.1,2.8-0.3s1.8-0.5,2.8-1v3.5
		c-0.8,0.4-1.6,0.7-2.5,0.9C170.3,118.4,169.2,118.5,167.9,118.5z M167.3,104.7c-0.9,0-1.7,0.3-2.2,0.9c-0.5,0.6-0.8,1.5-0.9,2.6
		h6.3c0-1.1-0.3-2-0.9-2.6C169,105,168.3,104.7,167.3,104.7z"/>
	<path class="st2" d="M189.7,113.3c0,1.7-0.6,3-1.8,3.8s-2.9,1.3-5.2,1.3c-1.2,0-2.2-0.1-3-0.2c-0.8-0.2-1.6-0.4-2.4-0.7v-3.7
		c0.8,0.4,1.8,0.7,2.8,1s2,0.4,2.7,0.4c1.6,0,2.4-0.5,2.4-1.4c0-0.4-0.1-0.6-0.3-0.9c-0.2-0.2-0.6-0.5-1.1-0.7
		c-0.5-0.3-1.2-0.6-2.1-1c-1.3-0.5-2.2-1-2.8-1.5s-1-1-1.3-1.5c-0.3-0.6-0.4-1.3-0.4-2.1c0-1.5,0.6-2.6,1.7-3.4s2.7-1.2,4.8-1.2
		c2,0,3.9,0.4,5.8,1.3l-1.3,3.2c-0.8-0.4-1.6-0.6-2.3-0.9s-1.4-0.3-2.2-0.3c-1.3,0-2,0.4-2,1.1c0,0.4,0.2,0.7,0.6,1s1.4,0.7,2.8,1.3
		c1.3,0.5,2.2,1,2.8,1.5s1,1,1.3,1.6S189.7,112.5,189.7,113.3z"/>
</g>
<g class="st5">
	<path class="st2" d="M55.2,154.2h-4.5v-9.6c0-2.4-0.9-3.5-2.6-3.5c-1.2,0-2.2,0.4-2.7,1.3s-0.8,2.2-0.8,4.1v7.7H40v-22.8h4.5v4.6
		c0,0.4,0,1.2-0.1,2.5l-0.1,1.3h0.2c1-1.6,2.6-2.4,4.7-2.4c1.9,0,3.4,0.5,4.4,1.6s1.5,2.5,1.5,4.5V154.2z"/>
	<path class="st2" d="M70.2,154.2l-0.9-2.2h-0.1c-0.8,0.9-1.5,1.6-2.3,2c-0.8,0.4-1.8,0.5-3.1,0.5c-1.6,0-2.8-0.4-3.7-1.3
		s-1.4-2.2-1.4-3.8c0-1.7,0.6-3,1.8-3.8c1.2-0.8,3-1.3,5.5-1.4l2.8-0.1v-0.7c0-1.7-0.8-2.5-2.5-2.5c-1.3,0-2.8,0.4-4.6,1.2l-1.5-3
		c1.9-1,4-1.5,6.3-1.5c2.2,0,3.9,0.5,5.1,1.4s1.8,2.4,1.8,4.4v10.9H70.2z M68.8,146.6l-1.7,0.1c-1.3,0-2.3,0.3-2.9,0.7s-1,1.1-1,2
		c0,1.3,0.7,1.9,2.2,1.9c1,0,1.9-0.3,2.5-0.9s0.9-1.4,0.9-2.4V146.6z"/>
	<path class="st2" d="M86.9,154.5c-1.9,0-3.4-0.7-4.5-2.1h-0.2c0.2,1.4,0.2,2.2,0.2,2.4v6.6h-4.5v-23.6h3.6l0.6,2.1h0.2
		c1-1.6,2.6-2.4,4.6-2.4c1.9,0,3.4,0.7,4.5,2.2s1.6,3.6,1.6,6.2c0,1.7-0.3,3.3-0.8,4.6s-1.2,2.3-2.2,2.9S88.1,154.5,86.9,154.5z
		 M85.5,141.1c-1.1,0-1.9,0.3-2.4,1s-0.8,1.8-0.8,3.4v0.5c0,1.8,0.3,3,0.8,3.8s1.4,1.1,2.5,1.1c2,0,3-1.7,3-5c0-1.6-0.2-2.8-0.7-3.6
		C87.4,141.5,86.6,141.1,85.5,141.1z"/>
	<path class="st2" d="M105.8,154.5c-1.9,0-3.4-0.7-4.5-2.1h-0.2c0.2,1.4,0.2,2.2,0.2,2.4v6.6h-4.5v-23.6h3.6l0.6,2.1h0.2
		c1-1.6,2.6-2.4,4.6-2.4c1.9,0,3.4,0.7,4.5,2.2s1.6,3.6,1.6,6.2c0,1.7-0.3,3.3-0.8,4.6s-1.2,2.3-2.2,2.9S107.1,154.5,105.8,154.5z
		 M104.5,141.1c-1.1,0-1.9,0.3-2.4,1s-0.8,1.8-0.8,3.4v0.5c0,1.8,0.3,3,0.8,3.8s1.4,1.1,2.5,1.1c2,0,3-1.7,3-5
		c0-1.6-0.2-2.8-0.7-3.6C106.4,141.5,105.6,141.1,104.5,141.1z"/>
	<path class="st2" d="M123.3,154.5c-2.6,0-4.7-0.7-6.2-2.2s-2.2-3.5-2.2-6.2c0-2.7,0.7-4.9,2.1-6.4s3.3-2.2,5.7-2.2
		c2.3,0,4.1,0.7,5.4,2s1.9,3.1,1.9,5.5v2.2h-10.6c0,1.3,0.4,2.3,1.1,3s1.7,1.1,3,1.1c1,0,1.9-0.1,2.8-0.3s1.8-0.5,2.8-1v3.5
		c-0.8,0.4-1.6,0.7-2.5,0.9C125.6,154.4,124.5,154.5,123.3,154.5z M122.6,140.7c-0.9,0-1.7,0.3-2.2,0.9c-0.5,0.6-0.8,1.5-0.9,2.6
		h6.3c0-1.1-0.3-2-0.9-2.6C124.3,141,123.6,140.7,122.6,140.7z"/>
	<path class="st2" d="M148.7,154.2h-4.5v-9.6c0-1.2-0.2-2.1-0.6-2.7c-0.4-0.6-1.1-0.9-2-0.9c-1.2,0-2.2,0.4-2.7,1.3
		c-0.6,0.8-0.8,2.2-0.8,4.2v7.7h-4.5v-16.4h3.4l0.6,2.1h0.2c0.5-0.8,1.2-1.4,2.1-1.8s1.9-0.6,3-0.6c1.9,0,3.3,0.5,4.3,1.5
		s1.5,2.5,1.5,4.5V154.2z"/>
	<path class="st2" d="M174.5,154.2l-1.3-5.7l-1.7-7.2h-0.1l-3,13h-4.8l-4.7-16.4h4.5l1.9,7.3c0.3,1.3,0.6,3.1,0.9,5.4h0.1
		c0-0.7,0.2-1.9,0.5-3.5l0.2-1.2l2-7.9h4.9l1.9,7.9c0,0.2,0.1,0.5,0.2,1s0.2,0.9,0.2,1.3s0.1,0.9,0.2,1.4c0.1,0.5,0.1,0.8,0.1,1.1
		h0.1c0.1-0.7,0.2-1.7,0.5-2.9s0.4-2.1,0.5-2.5l2-7.3h4.4l-4.7,16.4H174.5z"/>
	<path class="st2" d="M201.9,154.2h-4.5v-9.6c0-2.4-0.9-3.5-2.6-3.5c-1.2,0-2.2,0.4-2.7,1.3s-0.8,2.2-0.8,4.1v7.7h-4.5v-22.8h4.5
		v4.6c0,0.4,0,1.2-0.1,2.5l-0.1,1.3h0.2c1-1.6,2.6-2.4,4.7-2.4c1.9,0,3.4,0.5,4.4,1.6s1.5,2.5,1.5,4.5V154.2z"/>
	<path class="st2" d="M213.9,154.5c-2.6,0-4.7-0.7-6.2-2.2s-2.2-3.5-2.2-6.2c0-2.7,0.7-4.9,2.1-6.4s3.3-2.2,5.7-2.2
		c2.3,0,4.1,0.7,5.4,2s1.9,3.1,1.9,5.5v2.2H210c0,1.3,0.4,2.3,1.1,3s1.7,1.1,3,1.1c1,0,1.9-0.1,2.8-0.3s1.8-0.5,2.8-1v3.5
		c-0.8,0.4-1.6,0.7-2.5,0.9C216.2,154.4,215.2,154.5,213.9,154.5z M213.3,140.7c-0.9,0-1.7,0.3-2.2,0.9c-0.5,0.6-0.8,1.5-0.9,2.6
		h6.3c0-1.1-0.3-2-0.9-2.6C215,141,214.2,140.7,213.3,140.7z"/>
	<path class="st2" d="M239.3,154.2h-4.5v-9.6c0-1.2-0.2-2.1-0.6-2.7c-0.4-0.6-1.1-0.9-2-0.9c-1.2,0-2.2,0.4-2.7,1.3
		c-0.6,0.8-0.8,2.2-0.8,4.2v7.7h-4.5v-16.4h3.4l0.6,2.1h0.2c0.5-0.8,1.2-1.4,2.1-1.8s1.9-0.6,3-0.6c1.9,0,3.3,0.5,4.3,1.5
		s1.5,2.5,1.5,4.5V154.2z"/>
</g>
<g class="st5">
	<path class="st2" d="M49,190.5c-1.9,0-3.4-0.7-4.5-2.1h-0.2c0.2,1.4,0.2,2.2,0.2,2.4v6.6H40v-23.6h3.6l0.6,2.1h0.2
		c1-1.6,2.6-2.4,4.6-2.4c1.9,0,3.4,0.7,4.5,2.2s1.6,3.6,1.6,6.2c0,1.7-0.3,3.3-0.8,4.6s-1.2,2.3-2.2,2.9S50.3,190.5,49,190.5z
		 M47.7,177.1c-1.1,0-1.9,0.3-2.4,1s-0.8,1.8-0.8,3.4v0.5c0,1.8,0.3,3,0.8,3.8s1.4,1.1,2.5,1.1c2,0,3-1.7,3-5c0-1.6-0.2-2.8-0.7-3.6
		C49.5,177.5,48.8,177.1,47.7,177.1z"/>
	<path class="st2" d="M66.4,190.5c-2.6,0-4.7-0.7-6.2-2.2s-2.2-3.5-2.2-6.2c0-2.7,0.7-4.9,2.1-6.4s3.3-2.2,5.7-2.2
		c2.3,0,4.1,0.7,5.4,2s1.9,3.1,1.9,5.5v2.2H62.5c0,1.3,0.4,2.3,1.1,3s1.7,1.1,3,1.1c1,0,1.9-0.1,2.8-0.3s1.8-0.5,2.8-1v3.5
		c-0.8,0.4-1.6,0.7-2.5,0.9C68.8,190.4,67.7,190.5,66.4,190.5z M65.8,176.7c-0.9,0-1.7,0.3-2.2,0.9c-0.5,0.6-0.8,1.5-0.9,2.6h6.3
		c0-1.1-0.3-2-0.9-2.6C67.5,177,66.7,176.7,65.8,176.7z"/>
	<path class="st2" d="M91.6,182c0,2.7-0.7,4.8-2.1,6.3s-3.4,2.3-5.9,2.3c-1.6,0-3-0.3-4.2-1c-1.2-0.7-2.1-1.7-2.8-3s-1-2.8-1-4.5
		c0-2.7,0.7-4.8,2.1-6.2s3.4-2.2,5.9-2.2c1.6,0,3,0.3,4.2,1s2.1,1.7,2.8,2.9S91.6,180.3,91.6,182z M80.3,182c0,1.6,0.3,2.8,0.8,3.7
		s1.4,1.2,2.6,1.2c1.2,0,2-0.4,2.6-1.2s0.8-2.1,0.8-3.7c0-1.6-0.3-2.8-0.8-3.6s-1.4-1.2-2.6-1.2c-1.2,0-2.1,0.4-2.6,1.2
		C80.6,179.1,80.3,180.4,80.3,182z"/>
	<path class="st2" d="M104.3,190.5c-1.9,0-3.4-0.7-4.5-2.1h-0.2c0.2,1.4,0.2,2.2,0.2,2.4v6.6h-4.5v-23.6h3.6l0.6,2.1h0.2
		c1-1.6,2.6-2.4,4.6-2.4c1.9,0,3.4,0.7,4.5,2.2s1.6,3.6,1.6,6.2c0,1.7-0.3,3.3-0.8,4.6s-1.2,2.3-2.2,2.9S105.6,190.5,104.3,190.5z
		 M103,177.1c-1.1,0-1.9,0.3-2.4,1s-0.8,1.8-0.8,3.4v0.5c0,1.8,0.3,3,0.8,3.8s1.4,1.1,2.5,1.1c2,0,3-1.7,3-5c0-1.6-0.2-2.8-0.7-3.6
		C104.8,177.5,104,177.1,103,177.1z"/>
	<path class="st2" d="M118.8,190.2h-4.5v-22.8h4.5V190.2z"/>
	<path class="st2" d="M130.9,190.5c-2.6,0-4.7-0.7-6.2-2.2s-2.2-3.5-2.2-6.2c0-2.7,0.7-4.9,2.1-6.4s3.3-2.2,5.7-2.2
		c2.3,0,4.1,0.7,5.4,2s1.9,3.1,1.9,5.5v2.2H127c0,1.3,0.4,2.3,1.1,3s1.7,1.1,3,1.1c1,0,1.9-0.1,2.8-0.3s1.8-0.5,2.8-1v3.5
		c-0.8,0.4-1.6,0.7-2.5,0.9C133.2,190.4,132.1,190.5,130.9,190.5z M130.2,176.7c-0.9,0-1.7,0.3-2.2,0.9c-0.5,0.6-0.8,1.5-0.9,2.6
		h6.3c0-1.1-0.3-2-0.9-2.6C131.9,177,131.2,176.7,130.2,176.7z"/>
	<path class="st2" d="M159.4,190.2l-0.9-2.2h-0.1c-0.8,0.9-1.5,1.6-2.3,2c-0.8,0.4-1.8,0.5-3.1,0.5c-1.6,0-2.8-0.4-3.7-1.3
		s-1.4-2.2-1.4-3.8c0-1.7,0.6-3,1.8-3.8c1.2-0.8,3-1.3,5.5-1.4l2.8-0.1v-0.7c0-1.7-0.8-2.5-2.5-2.5c-1.3,0-2.8,0.4-4.6,1.2l-1.5-3
		c1.9-1,4-1.5,6.3-1.5c2.2,0,3.9,0.5,5.1,1.4s1.8,2.4,1.8,4.4v10.9H159.4z M158.1,182.6l-1.7,0.1c-1.3,0-2.3,0.3-2.9,0.7s-1,1.1-1,2
		c0,1.3,0.7,1.9,2.2,1.9c1,0,1.9-0.3,2.5-0.9s0.9-1.4,0.9-2.4V182.6z"/>
	<path class="st2" d="M176.2,173.5c0.6,0,1.1,0,1.5,0.1l-0.3,4.2c-0.4-0.1-0.8-0.1-1.3-0.1c-1.4,0-2.5,0.4-3.3,1.1s-1.2,1.8-1.2,3.1
		v8.3h-4.5v-16.4h3.4l0.7,2.8h0.2c0.5-0.9,1.2-1.7,2.1-2.2S175.2,173.5,176.2,173.5z"/>
	<path class="st2" d="M188.1,190.5c-2.6,0-4.7-0.7-6.2-2.2s-2.2-3.5-2.2-6.2c0-2.7,0.7-4.9,2.1-6.4s3.3-2.2,5.7-2.2
		c2.3,0,4.1,0.7,5.4,2s1.9,3.1,1.9,5.5v2.2h-10.6c0,1.3,0.4,2.3,1.1,3s1.7,1.1,3,1.1c1,0,1.9-0.1,2.8-0.3s1.8-0.5,2.8-1v3.5
		c-0.8,0.4-1.6,0.7-2.5,0.9C190.5,190.4,189.4,190.5,188.1,190.5z M187.5,176.7c-0.9,0-1.7,0.3-2.2,0.9c-0.5,0.6-0.8,1.5-0.9,2.6
		h6.3c0-1.1-0.3-2-0.9-2.6C189.2,177,188.4,176.7,187.5,176.7z"/>
</g>
<g class="st5">
	<path class="st2" d="M50.4,226.2l-0.9-2.2h-0.1c-0.8,0.9-1.5,1.6-2.3,2c-0.8,0.4-1.8,0.5-3.1,0.5c-1.6,0-2.8-0.4-3.7-1.3
		s-1.4-2.2-1.4-3.8c0-1.7,0.6-3,1.8-3.8c1.2-0.8,3-1.3,5.5-1.4l2.8-0.1v-0.7c0-1.7-0.8-2.5-2.5-2.5c-1.3,0-2.8,0.4-4.6,1.2l-1.5-3
		c1.9-1,4-1.5,6.3-1.5c2.2,0,3.9,0.5,5.1,1.4s1.8,2.4,1.8,4.4v10.9H50.4z M49.1,218.6l-1.7,0.1c-1.3,0-2.3,0.3-2.9,0.7s-1,1.1-1,2
		c0,1.3,0.7,1.9,2.2,1.9c1,0,1.9-0.3,2.5-0.9s0.9-1.4,0.9-2.4V218.6z"/>
	<path class="st2" d="M71.6,226.2l-1.3-5.7l-1.7-7.2h-0.1l-3,13h-4.8l-4.7-16.4h4.5l1.9,7.3c0.3,1.3,0.6,3.1,0.9,5.4h0.1
		c0-0.7,0.2-1.9,0.5-3.5l0.2-1.2l2-7.9h4.9l1.9,7.9c0,0.2,0.1,0.5,0.2,1s0.2,0.9,0.2,1.3s0.1,0.9,0.2,1.4c0.1,0.5,0.1,0.8,0.1,1.1
		h0.1c0.1-0.7,0.2-1.7,0.5-2.9s0.4-2.1,0.5-2.5l2-7.3h4.4l-4.7,16.4H71.6z"/>
	<path class="st2" d="M94.2,226.2l-0.9-2.2h-0.1c-0.8,0.9-1.5,1.6-2.3,2c-0.8,0.4-1.8,0.5-3.1,0.5c-1.6,0-2.8-0.4-3.7-1.3
		s-1.4-2.2-1.4-3.8c0-1.7,0.6-3,1.8-3.8c1.2-0.8,3-1.3,5.5-1.4l2.8-0.1v-0.7c0-1.7-0.8-2.5-2.5-2.5c-1.3,0-2.8,0.4-4.6,1.2l-1.5-3
		c1.9-1,4-1.5,6.3-1.5c2.2,0,3.9,0.5,5.1,1.4s1.8,2.4,1.8,4.4v10.9H94.2z M92.9,218.6l-1.7,0.1c-1.3,0-2.3,0.3-2.9,0.7s-1,1.1-1,2
		c0,1.3,0.7,1.9,2.2,1.9c1,0,1.9-0.3,2.5-0.9s0.9-1.4,0.9-2.4V218.6z"/>
	<path class="st2" d="M99.6,209.8h4.9l3.1,9.2c0.3,0.8,0.4,1.7,0.5,2.8h0.1c0.1-1,0.3-2,0.6-2.8l3-9.2h4.8l-6.9,18.5
		c-0.6,1.7-1.5,3-2.7,3.8s-2.6,1.3-4.1,1.3c-0.8,0-1.5-0.1-2.3-0.2v-3.5c0.5,0.1,1.1,0.2,1.8,0.2c0.8,0,1.5-0.2,2.1-0.7
		c0.6-0.5,1.1-1.2,1.4-2.2l0.3-0.8L99.6,209.8z"/>
	<path class="st2" d="M135.9,213.2H132v13h-4.5v-13h-2.5V211l2.5-1.2v-1.2c0-1.9,0.5-3.2,1.4-4.1s2.4-1.3,4.4-1.3
		c1.5,0,2.9,0.2,4.1,0.7l-1.1,3.3c-0.9-0.3-1.7-0.4-2.5-0.4c-0.6,0-1.1,0.2-1.4,0.6c-0.3,0.4-0.4,0.9-0.4,1.4v1h3.9V213.2z"/>
	<path class="st2" d="M147.6,209.5c0.6,0,1.1,0,1.5,0.1l-0.3,4.2c-0.4-0.1-0.8-0.1-1.3-0.1c-1.4,0-2.5,0.4-3.3,1.1s-1.2,1.8-1.2,3.1
		v8.3h-4.5v-16.4h3.4l0.7,2.8h0.2c0.5-0.9,1.2-1.7,2.1-2.2S146.6,209.5,147.6,209.5z"/>
	<path class="st2" d="M166.9,218c0,2.7-0.7,4.8-2.1,6.3s-3.4,2.3-5.9,2.3c-1.6,0-3-0.3-4.2-1c-1.2-0.7-2.1-1.7-2.8-3s-1-2.8-1-4.5
		c0-2.7,0.7-4.8,2.1-6.2s3.4-2.2,5.9-2.2c1.6,0,3,0.3,4.2,1s2.1,1.7,2.8,2.9S166.9,216.3,166.9,218z M155.6,218
		c0,1.6,0.3,2.8,0.8,3.7s1.4,1.2,2.6,1.2c1.2,0,2-0.4,2.6-1.2s0.8-2.1,0.8-3.7c0-1.6-0.3-2.8-0.8-3.6s-1.4-1.2-2.6-1.2
		c-1.2,0-2.1,0.4-2.6,1.2C155.9,215.1,155.6,216.4,155.6,218z"/>
	<path class="st2" d="M185.3,226.2h-4.5v-9.6c0-1.2-0.2-2.1-0.6-2.7c-0.4-0.6-1-0.9-1.9-0.9c-1.1,0-2,0.4-2.5,1.3s-0.8,2.2-0.8,4.1
		v7.7h-4.5v-16.4h3.4l0.6,2.1h0.2c0.4-0.8,1.1-1.3,1.9-1.8c0.8-0.4,1.8-0.6,2.9-0.6c2.5,0,4.1,0.8,5,2.4h0.4
		c0.4-0.8,1.1-1.4,1.9-1.8s1.8-0.6,2.9-0.6c1.9,0,3.3,0.5,4.2,1.4c1,1,1.4,2.5,1.4,4.6v10.7H191v-9.6c0-1.2-0.2-2.1-0.6-2.7
		c-0.4-0.6-1-0.9-1.9-0.9c-1.1,0-1.9,0.4-2.5,1.2s-0.8,2-0.8,3.7V226.2z"/>
</g>
<g class="st5">
	<path class="st2" d="M55.2,262.2h-4.5v-9.6c0-2.4-0.9-3.5-2.6-3.5c-1.2,0-2.2,0.4-2.7,1.3s-0.8,2.2-0.8,4.1v7.7H40v-22.8h4.5v4.6
		c0,0.4,0,1.2-0.1,2.5l-0.1,1.3h0.2c1-1.6,2.6-2.4,4.7-2.4c1.9,0,3.4,0.5,4.4,1.6s1.5,2.5,1.5,4.5V262.2z"/>
	<path class="st2" d="M74.6,254c0,2.7-0.7,4.8-2.1,6.3s-3.4,2.3-5.9,2.3c-1.6,0-3-0.3-4.2-1c-1.2-0.7-2.1-1.7-2.8-3s-1-2.8-1-4.5
		c0-2.7,0.7-4.8,2.1-6.2s3.4-2.2,5.9-2.2c1.6,0,3,0.3,4.2,1s2.1,1.7,2.8,2.9S74.6,252.3,74.6,254z M63.3,254c0,1.6,0.3,2.8,0.8,3.7
		s1.4,1.2,2.6,1.2c1.2,0,2-0.4,2.6-1.2s0.8-2.1,0.8-3.7c0-1.6-0.3-2.8-0.8-3.6s-1.4-1.2-2.6-1.2c-1.2,0-2.1,0.4-2.6,1.2
		C63.6,251.1,63.3,252.4,63.3,254z"/>
	<path class="st2" d="M93,262.2h-4.5v-9.6c0-1.2-0.2-2.1-0.6-2.7c-0.4-0.6-1-0.9-1.9-0.9c-1.1,0-2,0.4-2.5,1.3s-0.8,2.2-0.8,4.1v7.7
		h-4.5v-16.4h3.4l0.6,2.1h0.2c0.4-0.8,1.1-1.3,1.9-1.8c0.8-0.4,1.8-0.6,2.9-0.6c2.5,0,4.1,0.8,5,2.4h0.4c0.4-0.8,1.1-1.4,1.9-1.8
		s1.8-0.6,2.9-0.6c1.9,0,3.3,0.5,4.2,1.4c1,1,1.4,2.5,1.4,4.6v10.7h-4.5v-9.6c0-1.2-0.2-2.1-0.6-2.7c-0.4-0.6-1-0.9-1.9-0.9
		c-1.1,0-1.9,0.4-2.5,1.2s-0.8,2-0.8,3.7V262.2z"/>
	<path class="st2" d="M115.2,262.5c-2.6,0-4.7-0.7-6.2-2.2s-2.2-3.5-2.2-6.2c0-2.7,0.7-4.9,2.1-6.4s3.3-2.2,5.7-2.2
		c2.3,0,4.1,0.7,5.4,2s1.9,3.1,1.9,5.5v2.2h-10.6c0,1.3,0.4,2.3,1.1,3s1.7,1.1,3,1.1c1,0,1.9-0.1,2.8-0.3s1.8-0.5,2.8-1v3.5
		c-0.8,0.4-1.6,0.7-2.5,0.9C117.6,262.4,116.5,262.5,115.2,262.5z M114.6,248.7c-0.9,0-1.7,0.3-2.2,0.9c-0.5,0.6-0.8,1.5-0.9,2.6
		h6.3c0-1.1-0.3-2-0.9-2.6C116.3,249,115.5,248.7,114.6,248.7z"/>
</g>
</svg>
