<?xml version="1.0" encoding="utf-8"?>
<!-- Generator: Adobe Illustrator 22.1.0, SVG Export Plug-In . SVG Version: 6.00 Build 0)  -->
<svg version="1.1" id="Layer_1" xmlns="http://www.w3.org/2000/svg" xmlns:xlink="http://www.w3.org/1999/xlink" x="0px" y="0px"
	 viewBox="0 0 700 400" style="enable-background:new 0 0 700 400;" xml:space="preserve">
<style type="text/css">
	.st0{fill:#FFFFFF;}
	.st1{opacity:0.1;fill:none;stroke:#FFFFFF;stroke-width:5.74;stroke-miterlimit:10;enable-background:new    ;}
	.st2{fill:#008080;}
	.st3{fill:#014462;}
	.st4{fill:none;stroke:#014462;stroke-width:5.13;stroke-miterlimit:10;}
	.st5{font-family:'OpenSans-Bold';}
	.st6{font-size:59px;}
	.st7{font-size:30px;}
</style>
<rect class="st0" width="700" height="400"/>
<title>Burglary_Slider_v1</title>
<path class="st1" d="M402.5,271l0.1,0.2C402.7,271.1,402.6,271,402.5,271L402.5,271z"/>
<path class="st2" d="M508.3,360.9c3.5,0,6.3-2.9,6.4-6.4V209.2h28.4l0,0c3.2-0.1,5.6-2.7,5.6-5.9c0-1.4-0.6-2.8-1.6-3.8l0,0
	l-0.1-0.1l-0.1-0.1l-54.2-54.3V82.2c0-3.2-2.5-5.7-5.7-5.8h-30.9c-3.2,0-5.7,2.6-5.8,5.8v20.7l-32.6-32.5c-4.6-4.6-5.5-5.4-8.2-5.5
	c-2.7,0.1-3.6,0.9-8.2,5.5l-32.6,32.5L326.5,145l-54.2,54.3l-0.1,0.1l-0.1,0.1l0,0c-2.2,2.3-2.1,5.9,0.2,8.1c1,1,2.4,1.5,3.8,1.6
	l0,0h28.4v145.4c0,3.5,2.9,6.3,6.4,6.4L508.3,360.9z"/>
<g>
	<path class="st3" d="M372.9,226.2h19.3c4.4,0,7.9,3.5,7.9,7.9c0,0,0,0,0,0v19.3l0,0h-27.2l0,0V226.2L372.9,226.2z"/>
	<path class="st3" d="M342.8,226.2h19.3l0,0v27.2l0,0h-27.2l0,0v-19.3C334.9,229.7,338.4,226.2,342.8,226.2L342.8,226.2z"/>
	<path class="st3" d="M372.9,261.7h27.2l0,0V281c0,4.4-3.5,7.9-7.9,7.9l0,0h-19.3l0,0V261.7L372.9,261.7z"/>
	<path class="st3" d="M334.9,261.7h27.2l0,0v27.2l0,0h-19.3c-4.4,0-7.9-3.5-7.9-7.9l0,0V261.7L334.9,261.7z"/>
</g>
<line class="st4" x1="541.3" y1="359.5" x2="665.2" y2="359.5"/>
<path class="st3" d="M434.2,268.6h42.2c3.8,0,6.8,3.1,6.8,6.8v85.5l0,0h-55.9l0,0v-85.5C427.4,271.6,430.5,268.6,434.2,268.6
	C434.2,268.6,434.2,268.6,434.2,268.6z"/>
<text transform="matrix(1 0 0 1 37.69 82.21)" class="st2 st5 st6">00%</text>
<text transform="matrix(1 0 0 1 37.69 118.21)" class="st2 st5 st7">Burglaries </text>
<text transform="matrix(1 0 0 1 37.69 154.21)" class="st2 st5 st7">happen when </text>
<text transform="matrix(1 0 0 1 37.69 190.21)" class="st2 st5 st7">people are </text>
<text transform="matrix(1 0 0 1 37.69 226.21)" class="st2 st5 st7">away from </text>
<text transform="matrix(1 0 0 1 37.69 262.21)" class="st2 st5 st7">home</text>
</svg>
