<?xml version="1.0" encoding="utf-8"?>
<!-- Generator: Adobe Illustrator 22.1.0, SVG Export Plug-In . SVG Version: 6.00 Build 0)  -->
<svg version="1.1" id="Layer_1" xmlns="http://www.w3.org/2000/svg" xmlns:xlink="http://www.w3.org/1999/xlink" x="0px" y="0px"
	 viewBox="0 0 790.1 451.5" style="enable-background:new 0 0 790.1 451.5;" xml:space="preserve">
<style type="text/css">
	.st0{fill:#FFFFFF;stroke:#FFFFFF;stroke-width:5;stroke-miterlimit:10;}
	.st1{fill:#1A9596;stroke:#1A9596;stroke-miterlimit:10;}
	.st2{fill:#FFFFFF;}
	.st3{enable-background:new    ;}
	.st4{fill:#1A9596;}
	.st5{fill:none;stroke:#1A9596;stroke-width:5;stroke-miterlimit:10;}
	.st6{fill:#1A9596;stroke:#1A9596;stroke-width:4;stroke-miterlimit:10;}
	.st7{fill:#1A9596;stroke:#1A9596;stroke-width:7;stroke-miterlimit:10;}
	.st8{fill:none;stroke:#1A9596;stroke-miterlimit:10;}
	.st9{font-family:'MyriadPro-Regular';}
	.st10{font-size:90px;}
</style>
<rect class="st0" width="790.1" height="451.5"/>
<rect x="349.9" y="228.4" class="st1" width="220" height="181"/>
<polygon class="st1" points="304.9,228.4 457.9,76.9 614.9,228.4 "/>
<rect x="493.9" y="310.4" class="st2" width="53" height="99"/>
<rect x="379.9" y="263.4" class="st2" width="27" height="29"/>
<rect x="411.9" y="263.4" class="st2" width="27" height="29"/>
<rect x="379.9" y="296.9" class="st2" width="27" height="29"/>
<rect x="411.9" y="296.9" class="st2" width="27" height="29"/>
<rect x="514.9" y="93.4" class="st1" width="40.9" height="78"/>
<g class="st3">
	<path class="st4" d="M97.2,140.3c0,2.5-0.6,4.4-1.9,5.8c-1.3,1.4-3,2.1-5.3,2.1c-1.4,0-2.7-0.3-3.7-1c-1.1-0.6-1.9-1.6-2.5-2.7
		s-0.9-2.6-0.9-4.2c0-2.5,0.6-4.4,1.9-5.7s3-2.1,5.3-2.1c2.2,0,3.9,0.7,5.2,2.1C96.6,136,97.2,137.9,97.2,140.3z M86.2,140.3
		c0,3.5,1.3,5.2,3.9,5.2c2.6,0,3.8-1.7,3.8-5.2c0-3.5-1.3-5.2-3.9-5.2c-1.3,0-2.3,0.4-2.9,1.3C86.5,137.3,86.2,138.6,86.2,140.3z"/>
	<path class="st4" d="M108.5,135.2h-3.7v12.7h-3.2v-12.7h-2.5v-1.5l2.5-1v-1c0-1.8,0.4-3.1,1.3-4c0.8-0.9,2.1-1.3,3.8-1.3
		c1.1,0,2.2,0.2,3.3,0.6l-0.8,2.4c-0.8-0.3-1.6-0.4-2.3-0.4c-0.7,0-1.3,0.2-1.6,0.7s-0.5,1.1-0.5,2v1h3.7L108.5,135.2L108.5,135.2z"
		/>
	<path class="st4" d="M126.1,132.4c1.9,0,3.4,0.7,4.4,2.1s1.6,3.3,1.6,5.8c0,2.5-0.5,4.4-1.6,5.8s-2.5,2.1-4.4,2.1
		c-1.9,0-3.4-0.7-4.5-2.1h-0.2l-0.6,1.8h-2.4v-21.3h3.2v5.1c0,0.4,0,0.9-0.1,1.7c0,0.7-0.1,1.2-0.1,1.4h0.1
		C122.6,133.2,124.1,132.4,126.1,132.4z M125.2,135.1c-1.3,0-2.2,0.4-2.8,1.1c-0.6,0.8-0.9,2-0.9,3.8v0.2c0,1.8,0.3,3.2,0.9,4
		s1.5,1.2,2.9,1.2c1.1,0,2-0.5,2.6-1.4c0.6-0.9,0.9-2.2,0.9-3.9C128.8,136.8,127.6,135.1,125.2,135.1z"/>
	<path class="st4" d="M146.4,147.8l-0.5-2h-0.2c-0.4,0.7-1.1,1.3-1.9,1.7c-0.8,0.4-1.8,0.6-2.8,0.6c-1.8,0-3.2-0.5-4.1-1.4
		s-1.4-2.3-1.4-4.1v-9.9h3.2v9.3c0,1.2,0.2,2,0.7,2.6c0.5,0.6,1.2,0.9,2.2,0.9c1.3,0,2.3-0.4,3-1.2c0.6-0.8,0.9-2.2,0.9-4.1v-7.5
		h3.2v15.1L146.4,147.8L146.4,147.8z"/>
	<path class="st4" d="M161.2,132.4c0.6,0,1.2,0,1.6,0.1l-0.3,3c-0.5-0.1-0.9-0.2-1.4-0.2c-1.3,0-2.3,0.4-3.1,1.3
		c-0.8,0.8-1.2,1.9-1.2,3.3v7.9h-3.2v-15.1h2.5l0.4,2.7h0.2c0.5-0.9,1.2-1.6,2-2.1S160.3,132.4,161.2,132.4z"/>
	<path class="st4" d="M178.4,132.7v1.8l-2.6,0.5c0.2,0.3,0.4,0.7,0.6,1.2s0.2,1,0.2,1.5c0,1.6-0.5,2.8-1.6,3.7
		c-1.1,0.9-2.6,1.3-4.4,1.3c-0.5,0-0.9,0-1.3-0.1c-0.7,0.4-1,0.9-1,1.5c0,0.3,0.2,0.6,0.5,0.8s0.9,0.3,1.8,0.3h2.6
		c1.7,0,2.9,0.4,3.8,1.1s1.3,1.7,1.3,3.1c0,1.7-0.7,3-2.1,4c-1.4,0.9-3.5,1.4-6.1,1.4c-2.1,0-3.6-0.4-4.7-1.1
		c-1.1-0.7-1.6-1.8-1.6-3.1c0-0.9,0.3-1.7,0.9-2.3s1.4-1.1,2.5-1.3c-0.4-0.2-0.8-0.5-1.1-0.9s-0.4-0.8-0.4-1.3c0-0.6,0.2-1,0.5-1.4
		c0.3-0.4,0.8-0.8,1.4-1.2c-0.8-0.3-1.4-0.9-1.9-1.6c-0.5-0.8-0.7-1.7-0.7-2.7c0-1.6,0.5-2.9,1.6-3.8c1-0.9,2.5-1.4,4.4-1.4
		c0.4,0,0.9,0,1.3,0.1c0.5,0.1,0.8,0.1,1.1,0.2L178.4,132.7L178.4,132.7z M166.5,150.2c0,0.7,0.3,1.2,0.9,1.6
		c0.6,0.4,1.5,0.6,2.6,0.6c1.8,0,3.1-0.3,3.9-0.8c0.9-0.5,1.3-1.2,1.3-2c0-0.7-0.2-1.1-0.7-1.4c-0.5-0.3-1.3-0.4-2.6-0.4h-2.4
		c-0.9,0-1.7,0.2-2.2,0.6C166.8,148.9,166.5,149.5,166.5,150.2z M167.9,137.6c0,0.9,0.2,1.7,0.7,2.2s1.2,0.8,2.1,0.8
		c1.9,0,2.8-1,2.8-3c0-1-0.2-1.7-0.7-2.3s-1.2-0.8-2.1-0.8c-0.9,0-1.6,0.3-2.1,0.8S167.9,136.6,167.9,137.6z"/>
	<path class="st4" d="M184.4,147.8h-3.2v-21.3h3.2V147.8z"/>
	<path class="st4" d="M198.5,147.8l-0.6-2.1h-0.1c-0.7,0.9-1.5,1.5-2.2,1.9s-1.7,0.5-2.8,0.5c-1.5,0-2.6-0.4-3.5-1.2
		s-1.3-1.9-1.3-3.4c0-1.6,0.6-2.7,1.7-3.5s2.9-1.2,5.3-1.3l2.6-0.1v-0.8c0-1-0.2-1.7-0.7-2.2s-1.2-0.7-2.1-0.7
		c-0.8,0-1.5,0.1-2.2,0.3s-1.4,0.5-2.1,0.8l-1-2.3c0.8-0.4,1.7-0.8,2.7-1c1-0.2,1.9-0.3,2.8-0.3c1.9,0,3.4,0.4,4.4,1.3
		c1,0.8,1.5,2.2,1.5,4v10.2L198.5,147.8L198.5,147.8z M193.7,145.7c1.2,0,2.1-0.3,2.8-1c0.7-0.7,1.1-1.6,1.1-2.7v-1.3l-1.9,0.1
		c-1.5,0.1-2.6,0.3-3.3,0.8s-1,1.1-1,2.1c0,0.7,0.2,1.2,0.6,1.6C192.3,145.5,192.9,145.7,193.7,145.7z"/>
	<path class="st4" d="M212.9,132.4c0.6,0,1.2,0,1.6,0.1l-0.3,3c-0.5-0.1-0.9-0.2-1.4-0.2c-1.3,0-2.3,0.4-3.1,1.3
		c-0.8,0.8-1.2,1.9-1.2,3.3v7.9h-3.2v-15.1h2.5l0.4,2.7h0.2c0.5-0.9,1.2-1.6,2-2.1S212,132.4,212.9,132.4z"/>
	<path class="st4" d="M217.1,128.7c0-0.6,0.2-1,0.5-1.3s0.8-0.5,1.3-0.5c0.6,0,1,0.2,1.3,0.5s0.5,0.8,0.5,1.3c0,0.5-0.2,1-0.5,1.3
		s-0.8,0.5-1.3,0.5c-0.6,0-1-0.2-1.3-0.5S217.1,129.3,217.1,128.7z M220.5,147.8h-3.2v-15.1h3.2V147.8z"/>
	<path class="st4" d="M231.7,148.1c-2.4,0-4.2-0.7-5.5-2.1s-2-3.3-2-5.7c0-2.5,0.6-4.4,1.8-5.8s2.9-2.1,5.1-2.1c2,0,3.6,0.6,4.7,1.8
		c1.2,1.2,1.7,2.9,1.7,5v1.7h-10.1c0,1.5,0.4,2.6,1.2,3.4c0.7,0.8,1.8,1.2,3.2,1.2c0.9,0,1.7-0.1,2.5-0.3c0.8-0.2,1.6-0.4,2.5-0.8
		v2.6c-0.8,0.4-1.6,0.6-2.4,0.8C233.7,148,232.8,148.1,231.7,148.1z M231.1,134.9c-1,0-1.8,0.3-2.5,1s-1,1.6-1.1,2.8h6.9
		c0-1.2-0.3-2.2-0.9-2.8C233,135.2,232.2,134.9,231.1,134.9z"/>
	<path class="st4" d="M251.4,143.5c0,1.5-0.5,2.6-1.6,3.4c-1.1,0.8-2.6,1.2-4.6,1.2c-2,0-3.6-0.3-4.9-0.9v-2.8
		c1.8,0.8,3.4,1.2,5,1.2c2,0,3-0.6,3-1.8c0-0.4-0.1-0.7-0.3-1s-0.6-0.5-1.1-0.8s-1.2-0.6-2.1-0.9c-1.7-0.7-2.9-1.3-3.5-2
		s-0.9-1.6-0.9-2.6c0-1.3,0.5-2.3,1.6-3c1-0.7,2.5-1.1,4.3-1.1c1.8,0,3.5,0.4,5,1.1l-1,2.4c-1.6-0.7-3-1-4.1-1
		c-1.7,0-2.5,0.5-2.5,1.4c0,0.5,0.2,0.9,0.7,1.2s1.4,0.8,2.9,1.4c1.2,0.5,2.2,0.9,2.7,1.3c0.6,0.4,1,0.9,1.3,1.4
		S251.4,142.8,251.4,143.5z"/>
	<path class="st4" d="M275.5,147.8h-3.2v-9.3c0-1.2-0.2-2-0.7-2.6c-0.5-0.6-1.2-0.9-2.2-0.9c-1.3,0-2.3,0.4-3,1.2s-1,2.2-1,4.1v7.5
		h-3.2v-21.3h3.2v5.4c0,0.9-0.1,1.8-0.2,2.8h0.2c0.4-0.7,1-1.3,1.8-1.7s1.7-0.6,2.7-0.6c3.7,0,5.5,1.8,5.5,5.5V147.8z"/>
	<path class="st4" d="M289.4,147.8l-0.6-2.1h-0.1c-0.7,0.9-1.5,1.5-2.2,1.9s-1.7,0.5-2.8,0.5c-1.5,0-2.6-0.4-3.5-1.2
		s-1.3-1.9-1.3-3.4c0-1.6,0.6-2.7,1.7-3.5c1.2-0.8,2.9-1.2,5.3-1.3l2.6-0.1v-0.8c0-1-0.2-1.7-0.7-2.2s-1.2-0.7-2.1-0.7
		c-0.8,0-1.5,0.1-2.2,0.3s-1.4,0.5-2.1,0.8l-1-2.3c0.8-0.4,1.7-0.8,2.7-1s1.9-0.3,2.8-0.3c1.9,0,3.4,0.4,4.4,1.3
		c1,0.8,1.5,2.2,1.5,4v10.2L289.4,147.8L289.4,147.8z M284.6,145.7c1.2,0,2.1-0.3,2.8-1c0.7-0.7,1.1-1.6,1.1-2.7v-1.3l-1.9,0.1
		c-1.5,0.1-2.6,0.3-3.3,0.8s-1,1.1-1,2.1c0,0.7,0.2,1.2,0.6,1.6C283.2,145.5,283.8,145.7,284.6,145.7z"/>
	<path class="st4" d="M303.8,148.1c-1.9,0-3.4-0.7-4.5-2.1h-0.2c0.1,1.3,0.2,2.1,0.2,2.3v6.2h-3.2v-21.8h2.6c0.1,0.3,0.2,1,0.5,2
		h0.2c1-1.5,2.5-2.3,4.5-2.3c1.9,0,3.4,0.7,4.4,2.1s1.6,3.3,1.6,5.8s-0.5,4.4-1.6,5.8C307.2,147.4,305.7,148.1,303.8,148.1z
		 M303.1,135.1c-1.3,0-2.2,0.4-2.8,1.1s-0.9,1.9-0.9,3.6v0.5c0,1.8,0.3,3.2,0.9,4s1.5,1.2,2.9,1.2c1.1,0,2-0.5,2.6-1.4
		s0.9-2.2,0.9-3.9c0-1.7-0.3-3-0.9-3.8C305.1,135.5,304.2,135.1,303.1,135.1z"/>
	<path class="st4" d="M321.3,148.1c-1.9,0-3.4-0.7-4.5-2.1h-0.2c0.1,1.3,0.2,2.1,0.2,2.3v6.2h-3.2v-21.8h2.6c0.1,0.3,0.2,1,0.5,2
		h0.2c1-1.5,2.5-2.3,4.5-2.3c1.9,0,3.4,0.7,4.4,2.1s1.6,3.3,1.6,5.8s-0.5,4.4-1.6,5.8C324.7,147.4,323.2,148.1,321.3,148.1z
		 M320.5,135.1c-1.3,0-2.2,0.4-2.8,1.1s-0.9,1.9-0.9,3.6v0.5c0,1.8,0.3,3.2,0.9,4s1.5,1.2,2.9,1.2c1.1,0,2-0.5,2.6-1.4
		s0.9-2.2,0.9-3.9c0-1.7-0.3-3-0.9-3.8C322.5,135.5,321.7,135.1,320.5,135.1z"/>
	<path class="st4" d="M337.7,148.1c-2.4,0-4.2-0.7-5.5-2.1s-2-3.3-2-5.7c0-2.5,0.6-4.4,1.8-5.8s2.9-2.1,5.1-2.1c2,0,3.6,0.6,4.7,1.8
		c1.2,1.2,1.7,2.9,1.7,5v1.7h-10.1c0,1.5,0.4,2.6,1.2,3.4c0.7,0.8,1.8,1.2,3.2,1.2c0.9,0,1.7-0.1,2.5-0.3s1.6-0.4,2.5-0.8v2.6
		c-0.8,0.4-1.6,0.6-2.4,0.8C339.6,148,338.7,148.1,337.7,148.1z M337.1,134.9c-1,0-1.8,0.3-2.5,1s-1,1.6-1.1,2.8h6.9
		c0-1.2-0.3-2.2-0.9-2.8C338.9,135.2,338.1,134.9,337.1,134.9z"/>
	<path class="st4" d="M360.5,147.8h-3.2v-9.3c0-1.2-0.2-2-0.7-2.6c-0.5-0.6-1.2-0.9-2.2-0.9c-1.4,0-2.4,0.4-3,1.2s-0.9,2.1-0.9,4
		v7.5h-3.2v-15.1h2.5l0.5,2h0.2c0.5-0.7,1.1-1.3,1.9-1.7s1.8-0.6,2.8-0.6c3.6,0,5.4,1.8,5.4,5.5V147.8z"/>
</g>
<g class="st3">
	<path class="st4" d="M96.2,181.4l-2-7.1c-0.2-0.7-0.7-2.5-1.3-5.2h-0.1c-0.5,2.5-0.9,4.2-1.3,5.2l-2,7H86l-4.2-15.1h3.3l1.9,7.5
		c0.4,1.8,0.7,3.4,0.9,4.7H88c0.1-0.7,0.2-1.4,0.4-2.3s0.3-1.5,0.5-1.9l2.3-8h3.5l2.2,8c0.1,0.4,0.3,1.1,0.5,2.1s0.3,1.6,0.4,2.1
		h0.1c0.1-1.1,0.5-2.7,1-4.7l2-7.5h3.2l-4.3,15.1L96.2,181.4L96.2,181.4z"/>
	<path class="st4" d="M120,181.4h-3.2v-9.3c0-1.2-0.2-2-0.7-2.6c-0.5-0.6-1.2-0.9-2.2-0.9c-1.3,0-2.3,0.4-3,1.2s-0.9,2.2-0.9,4.1
		v7.5h-3.2v-21.3h3.2v5.4c0,0.9-0.1,1.8-0.2,2.8h0.2c0.4-0.7,1-1.3,1.8-1.7s1.7-0.6,2.7-0.6c3.7,0,5.5,1.8,5.5,5.5V181.4z"/>
	<path class="st4" d="M131,181.7c-2.4,0-4.2-0.7-5.5-2.1s-2-3.3-2-5.7c0-2.5,0.6-4.4,1.8-5.8s2.9-2.1,5.1-2.1c2,0,3.6,0.6,4.7,1.8
		c1.2,1.2,1.7,2.9,1.7,5v1.7h-10.1c0,1.5,0.4,2.6,1.2,3.4c0.7,0.8,1.8,1.2,3.2,1.2c0.9,0,1.7-0.1,2.5-0.3c0.8-0.2,1.6-0.4,2.5-0.8
		v2.6c-0.8,0.4-1.6,0.6-2.4,0.8C133,181.6,132.1,181.7,131,181.7z M130.5,168.5c-1,0-1.8,0.3-2.5,1s-1,1.6-1.1,2.8h6.9
		c0-1.2-0.3-2.2-0.9-2.8C132.3,168.8,131.5,168.5,130.5,168.5z"/>
	<path class="st4" d="M153.9,181.4h-3.2v-9.3c0-1.2-0.2-2-0.7-2.6c-0.5-0.6-1.2-0.9-2.2-0.9c-1.4,0-2.4,0.4-3,1.2s-0.9,2.1-0.9,4
		v7.5h-3.2v-15.1h2.5l0.5,2h0.2c0.5-0.7,1.1-1.3,1.9-1.7s1.8-0.6,2.8-0.6c3.6,0,5.4,1.8,5.4,5.5L153.9,181.4L153.9,181.4z"/>
	<path class="st4" d="M173.3,181.7c-1.9,0-3.4-0.7-4.5-2.1h-0.2c0.1,1.3,0.2,2.1,0.2,2.3v6.2h-3.2v-21.8h2.6c0.1,0.3,0.2,1,0.5,2
		h0.2c1-1.5,2.5-2.3,4.5-2.3c1.9,0,3.4,0.7,4.4,2.1s1.6,3.3,1.6,5.8s-0.5,4.4-1.6,5.8C176.7,181,175.2,181.7,173.3,181.7z
		 M172.5,168.7c-1.3,0-2.2,0.4-2.8,1.1s-0.9,1.9-0.9,3.6v0.5c0,1.8,0.3,3.2,0.9,4s1.5,1.2,2.9,1.2c1.1,0,2-0.5,2.6-1.4
		s0.9-2.2,0.9-3.9c0-1.7-0.3-3-0.9-3.8C174.5,169.1,173.7,168.7,172.5,168.7z"/>
	<path class="st4" d="M189.7,181.7c-2.4,0-4.2-0.7-5.5-2.1s-2-3.3-2-5.7c0-2.5,0.6-4.4,1.8-5.8s2.9-2.1,5.1-2.1c2,0,3.6,0.6,4.7,1.8
		c1.2,1.2,1.7,2.9,1.7,5v1.7h-10.1c0,1.5,0.4,2.6,1.2,3.4c0.7,0.8,1.8,1.2,3.2,1.2c0.9,0,1.7-0.1,2.5-0.3c0.8-0.2,1.6-0.4,2.5-0.8
		v2.6c-0.8,0.4-1.6,0.6-2.4,0.8C191.6,181.6,190.7,181.7,189.7,181.7z M189.1,168.5c-1,0-1.8,0.3-2.5,1s-1,1.6-1.1,2.8h6.9
		c0-1.2-0.3-2.2-0.9-2.8C190.9,168.8,190.1,168.5,189.1,168.5z"/>
	<path class="st4" d="M212.6,173.9c0,2.5-0.6,4.4-1.9,5.8c-1.3,1.4-3,2.1-5.3,2.1c-1.4,0-2.7-0.3-3.7-1c-1.1-0.6-1.9-1.6-2.5-2.7
		s-0.9-2.6-0.9-4.2c0-2.5,0.6-4.4,1.9-5.7s3-2.1,5.3-2.1c2.2,0,3.9,0.7,5.2,2.1S212.6,171.5,212.6,173.9z M201.6,173.9
		c0,3.5,1.3,5.2,3.9,5.2c2.6,0,3.8-1.7,3.8-5.2c0-3.5-1.3-5.2-3.9-5.2c-1.3,0-2.3,0.4-2.9,1.3C201.9,170.9,201.6,172.2,201.6,173.9z
		"/>
	<path class="st4" d="M224,181.7c-1.9,0-3.4-0.7-4.5-2.1h-0.2c0.1,1.3,0.2,2.1,0.2,2.3v6.2h-3.2v-21.8h2.6c0.1,0.3,0.2,1,0.5,2h0.2
		c1-1.5,2.5-2.3,4.5-2.3c1.9,0,3.4,0.7,4.4,2.1s1.6,3.3,1.6,5.8s-0.5,4.4-1.6,5.8C227.3,181,225.9,181.7,224,181.7z M223.2,168.7
		c-1.3,0-2.2,0.4-2.8,1.1s-0.9,1.9-0.9,3.6v0.5c0,1.8,0.3,3.2,0.9,4s1.5,1.2,2.9,1.2c1.1,0,2-0.5,2.6-1.4s0.9-2.2,0.9-3.9
		c0-1.7-0.3-3-0.9-3.8C225.2,169.1,224.4,168.7,223.2,168.7z"/>
	<path class="st4" d="M237,181.4h-3.2v-21.3h3.2V181.4z"/>
	<path class="st4" d="M248.2,181.7c-2.4,0-4.2-0.7-5.5-2.1s-2-3.3-2-5.7c0-2.5,0.6-4.4,1.8-5.8s2.9-2.1,5.1-2.1c2,0,3.6,0.6,4.7,1.8
		c1.2,1.2,1.7,2.9,1.7,5v1.7H244c0,1.5,0.4,2.6,1.2,3.4c0.7,0.8,1.8,1.2,3.2,1.2c0.9,0,1.7-0.1,2.5-0.3c0.8-0.2,1.6-0.4,2.5-0.8v2.6
		c-0.8,0.4-1.6,0.6-2.4,0.8C250.1,181.6,249.2,181.7,248.2,181.7z M247.6,168.5c-1,0-1.8,0.3-2.5,1s-1,1.6-1.1,2.8h6.9
		c0-1.2-0.3-2.2-0.9-2.8C249.4,168.8,248.6,168.5,247.6,168.5z"/>
</g>
<g class="st3">
	<path class="st4" d="M93.3,215l-0.6-2.1h-0.1c-0.7,0.9-1.5,1.5-2.2,1.9s-1.7,0.5-2.8,0.5c-1.5,0-2.6-0.4-3.5-1.2s-1.3-1.9-1.3-3.4
		c0-1.6,0.6-2.7,1.7-3.5s2.9-1.2,5.3-1.3l2.6-0.1V205c0-1-0.2-1.7-0.7-2.2s-1.2-0.7-2.1-0.7c-0.8,0-1.5,0.1-2.2,0.3
		s-1.4,0.5-2.1,0.8l-1-2.3c0.8-0.4,1.7-0.8,2.7-1s1.9-0.3,2.8-0.3c1.9,0,3.4,0.4,4.4,1.3c1,0.8,1.5,2.2,1.5,4V215L93.3,215L93.3,215
		z M88.5,212.9c1.2,0,2.1-0.3,2.8-1c0.7-0.7,1.1-1.6,1.1-2.7v-1.3l-1.9,0.1c-1.5,0.1-2.6,0.3-3.3,0.8s-1,1.1-1,2.1
		c0,0.7,0.2,1.2,0.6,1.6C87.1,212.7,87.7,212.9,88.5,212.9z"/>
	<path class="st4" d="M107.7,199.6c0.6,0,1.2,0,1.6,0.1l-0.3,3c-0.5-0.1-0.9-0.2-1.4-0.2c-1.3,0-2.3,0.4-3.1,1.3
		c-0.8,0.8-1.2,1.9-1.2,3.3v7.9H100v-15.1h2.5l0.4,2.7h0.2c0.5-0.9,1.2-1.6,2-2.1S106.8,199.6,107.7,199.6z"/>
	<path class="st4" d="M118.7,215.3c-2.4,0-4.2-0.7-5.5-2.1s-2-3.3-2-5.7c0-2.5,0.6-4.4,1.8-5.8s2.9-2.1,5.1-2.1c2,0,3.6,0.6,4.7,1.8
		c1.2,1.2,1.7,2.9,1.7,5v1.7h-10.1c0,1.5,0.4,2.6,1.2,3.4c0.7,0.8,1.8,1.2,3.2,1.2c0.9,0,1.7-0.1,2.5-0.3c0.8-0.2,1.6-0.4,2.5-0.8
		v2.6c-0.8,0.4-1.6,0.6-2.4,0.8C120.7,215.2,119.7,215.3,118.7,215.3z M118.1,202.1c-1,0-1.8,0.3-2.5,1s-1,1.6-1.1,2.8h6.9
		c0-1.2-0.3-2.2-0.9-2.8C119.9,202.4,119.1,202.1,118.1,202.1z"/>
	<path class="st4" d="M145,215l-0.6-2.1h-0.1c-0.7,0.9-1.5,1.5-2.2,1.9s-1.7,0.5-2.8,0.5c-1.5,0-2.6-0.4-3.5-1.2s-1.3-1.9-1.3-3.4
		c0-1.6,0.6-2.7,1.7-3.5s2.9-1.2,5.3-1.3l2.6-0.1V205c0-1-0.2-1.7-0.7-2.2s-1.2-0.7-2.1-0.7c-0.8,0-1.5,0.1-2.2,0.3
		s-1.4,0.5-2.1,0.8l-1-2.3c0.8-0.4,1.7-0.8,2.7-1c1-0.2,1.9-0.3,2.8-0.3c1.9,0,3.4,0.4,4.4,1.3c1,0.8,1.5,2.2,1.5,4V215L145,215
		L145,215z M140.2,212.9c1.2,0,2.1-0.3,2.8-1c0.7-0.7,1.1-1.6,1.1-2.7v-1.3l-1.9,0.1c-1.5,0.1-2.6,0.3-3.3,0.8s-1,1.1-1,2.1
		c0,0.7,0.2,1.2,0.6,1.6C138.8,212.7,139.4,212.9,140.2,212.9z"/>
	<path class="st4" d="M157.4,212.7c0.8,0,1.6-0.1,2.4-0.4v2.4c-0.4,0.2-0.8,0.3-1.4,0.4s-1.1,0.2-1.7,0.2c-3,0-4.6-1.6-4.6-4.8v-8.1
		H150v-1.4l2.2-1.2l1.1-3.2h2v3.4h4.3v2.4h-4.3v8.1c0,0.8,0.2,1.3,0.6,1.7C156.3,212.5,156.8,212.7,157.4,212.7z"/>
	<path class="st4" d="M183.3,215h-3.2v-9.3c0-1.2-0.2-2-0.7-2.6c-0.5-0.6-1.2-0.9-2.2-0.9c-1.3,0-2.3,0.4-3,1.2s-0.9,2.2-0.9,4.1
		v7.5H170v-21.3h3.2v5.4c0,0.9-0.1,1.8-0.2,2.8h0.2c0.4-0.7,1-1.3,1.8-1.7s1.7-0.6,2.7-0.6c3.7,0,5.5,1.8,5.5,5.5V215z"/>
	<path class="st4" d="M201.2,207.5c0,2.5-0.6,4.4-1.9,5.8c-1.3,1.4-3,2.1-5.3,2.1c-1.4,0-2.7-0.3-3.7-1c-1.1-0.6-1.9-1.6-2.5-2.7
		s-0.9-2.6-0.9-4.2c0-2.5,0.6-4.4,1.9-5.7s3-2.1,5.3-2.1c2.2,0,3.9,0.7,5.2,2.1S201.2,205.1,201.2,207.5z M190.2,207.5
		c0,3.5,1.3,5.2,3.9,5.2c2.6,0,3.8-1.7,3.8-5.2c0-3.5-1.3-5.2-3.9-5.2c-1.3,0-2.3,0.4-2.9,1.3C190.5,204.5,190.2,205.8,190.2,207.5z
		"/>
	<path class="st4" d="M217.7,215h-3.2v-9.3c0-1.2-0.2-2-0.7-2.6s-1.1-0.9-2.1-0.9c-1.2,0-2.1,0.4-2.7,1.2s-0.9,2.1-0.9,4v7.5h-3.2
		v-15.1h2.5l0.5,2h0.2c0.4-0.7,1-1.3,1.8-1.7c0.8-0.4,1.7-0.6,2.6-0.6c2.3,0,3.9,0.8,4.6,2.4h0.2c0.4-0.7,1.1-1.3,1.9-1.8
		c0.8-0.4,1.7-0.6,2.8-0.6c1.8,0,3.1,0.5,3.9,1.4c0.8,0.9,1.2,2.3,1.2,4.2v9.9H224v-9.3c0-1.2-0.2-2-0.7-2.6
		c-0.4-0.6-1.1-0.9-2.1-0.9c-1.2,0-2.2,0.4-2.7,1.2c-0.6,0.8-0.9,2-0.9,3.6L217.7,215L217.7,215z"/>
	<path class="st4" d="M238.3,215.3c-2.4,0-4.2-0.7-5.5-2.1s-2-3.3-2-5.7c0-2.5,0.6-4.4,1.8-5.8s2.9-2.1,5.1-2.1c2,0,3.6,0.6,4.7,1.8
		c1.2,1.2,1.7,2.9,1.7,5v1.7h-10.1c0,1.5,0.4,2.6,1.2,3.4c0.7,0.8,1.8,1.2,3.2,1.2c0.9,0,1.7-0.1,2.5-0.3c0.8-0.2,1.6-0.4,2.5-0.8
		v2.6c-0.8,0.4-1.6,0.6-2.4,0.8C240.2,215.2,239.3,215.3,238.3,215.3z M237.7,202.1c-1,0-1.8,0.3-2.5,1s-1,1.6-1.1,2.8h6.9
		c0-1.2-0.3-2.2-0.9-2.8C239.5,202.4,238.7,202.1,237.7,202.1z"/>
</g>
<line class="st5" x1="589.1" y1="409.4" x2="766.1" y2="409.4"/>
<ellipse class="st6" cx="524" cy="332.6" rx="8.1" ry="9.6"/>
<rect x="519.9" y="345.5" class="st7" width="10.2" height="37.9"/>
<rect x="517.3" y="371.5" class="st1" width="5.3" height="37.9"/>
<rect x="527.5" y="371.5" class="st1" width="5.3" height="37.9"/>
<rect x="496" y="357.4" transform="matrix(0.2056 -0.9786 0.9786 0.2056 56.8406 789.8243)" class="st1" width="37.9" height="5.1"/>
<rect x="531.3" y="340.9" transform="matrix(0.9705 -0.2411 0.2411 0.9705 -71.0236 139.3285)" class="st1" width="5.1" height="37.9"/>
<g>
	<path class="st4" d="M626,378.1c0,5,4,9,9,9h75.3c5,0,9-4,9-9v-19.4c0-5-4-9-9-9H635c-5,0-9,4-9,9L626,378.1L626,378.1z"/>
	<path class="st8" d="M626,378.1c0,5,4,9,9,9h75.3c5,0,9-4,9-9v-19.4c0-5-4-9-9-9H635c-5,0-9,4-9,9L626,378.1L626,378.1z"/>
</g>
<ellipse class="st2" cx="643" cy="358.1" rx="7.7" ry="6.3"/>
<ellipse class="st2" cx="704.3" cy="356.5" rx="7.7" ry="6.3"/>
<polygon class="st1" points="710.3,347.1 635.7,347.1 646,318.4 699.3,318.4 "/>
<polygon class="st2" points="700.7,343.5 646.1,343.5 653.7,324.5 692.6,324.5 "/>
<path class="st1" d="M643,400.7c0,2.6-1.7,4.7-3.8,4.7l0,0c-2.1,0-3.8-2.1-3.8-4.7v-13.1c0-2.6,1.7-4.7,3.8-4.7l0,0
	c2.1,0,3.8,2.1,3.8,4.7V400.7z"/>
<path class="st1" d="M712,399.2c0,3-1.7,5.5-3.8,5.5l0,0c-2.1,0-3.8-2.5-3.8-5.5v-10.8c0-3,1.7-5.5,3.8-5.5l0,0
	c2.1,0,3.8,2.5,3.8,5.5V399.2z"/>
<text transform="matrix(1 0 0 1 81.773 114)" class="st4 st9 st10">xx%</text>
</svg>
