<?xml version="1.0" encoding="utf-8"?>
<!-- Generator: Adobe Illustrator 22.1.0, SVG Export Plug-In . SVG Version: 6.00 Build 0)  -->
<svg version="1.1" id="Layer_1" xmlns="http://www.w3.org/2000/svg" xmlns:xlink="http://www.w3.org/1999/xlink" x="0px" y="0px"
	 viewBox="0 0 700 400" style="enable-background:new 0 0 700 400;" xml:space="preserve">
<style type="text/css">
	.st0{opacity:0.1;fill:none;stroke:#FFFFFF;stroke-width:5.74;stroke-miterlimit:10;enable-background:new    ;}
	.st1{fill:#FFFFFF;}
	.st2{fill:#206095;}
	.st3{fill:none;stroke:#014462;stroke-width:5.13;stroke-miterlimit:10;}
	.st4{fill:#014462;}
	.st5{enable-background:new    ;}
</style>
<title>Burglary_Slider_v1</title>
<path class="st0" d="M394.3,258.2l0.1,0.2C394.5,258.3,394.4,258.2,394.3,258.2L394.3,258.2z"/>
<g>
	<polygon class="st1" points="536.5,284.9 552.2,263.3 612.3,263.3 626.7,286.1 631.5,296.9 631.5,324.6 530.5,324.6 531.7,298.2 	
		"/>
	<path class="st2" d="M557.7,258c-4.1,0-6.2,1.3-8.4,4c-4,5.1-7.7,10.5-11.2,16h-12.2c-0.5,0-2-0.1-2,2v2c0,2.3,1.9,4,4.2,4
		c0,0,0,0,0,0h5.6c0,0-5.5,9.9-5.5,20v32c0.2,2.2,2,3.9,4.2,4h8.4c2.2-0.2,3.9-1.8,4.2-4v-8h75.6v8c0.3,2.2,2,3.8,4.2,4h8.4
		c2.2-0.1,4-1.8,4.2-4v-32c0-9.4-5.5-20-5.5-20h5.6c2.3,0.1,4.1-1.7,4.2-4c0,0,0,0,0,0v-2c0-2.1-1.5-2-2-2h-12.2
		c-3.3-5.6-7.1-11-11.2-16c-2.2-2.7-4.3-4-8.4-4H557.7z M558.5,265.3h48.8c1.4,0,3.5,0.5,5.1,3.1c3.1,4.2,6,8.7,8.5,13.3
		c1.6,2.4-0.1,4-1.7,4h-72.7c-1.6,0-3.3-1.6-1.7-4c2.7-4.4,5.4-8.9,8.5-13.3C555,265.8,557.1,265.3,558.5,265.3z M544.9,294.2
		c4.5-0.2,8.3,3.4,8.4,7.9c0,0.6-0.1,1.2-0.3,1.8c-0.1,0.4-0.2,0.9-0.4,1.3c0,0.1-0.1,0.2-0.1,0.3c-0.2,0.4-0.4,0.9-0.7,1.2
		c-0.3,0.4-0.6,0.7-0.9,1c-1.6,1.6-3.7,2.5-5.9,2.5c-0.6-0.1-1.3-0.2-1.9-0.4c-0.4-0.1-0.9-0.1-1.3-0.3l-0.3-0.1
		c-0.4-0.2-0.7-0.4-1.1-0.6c-0.4-0.2-0.8-0.5-1.2-0.8c-0.1,0-0.1-0.2-0.1-0.2c-0.1-0.1-0.2-0.1-0.3-0.1c-1.6-1.4-2.5-3.4-2.5-5.5
		C536.6,297.6,540.4,294.1,544.9,294.2L544.9,294.2z M620.6,294.6c4.3,0.2,7.6,3.9,7.4,8.1c-0.2,4.3-3.9,7.6-8.1,7.4
		c-4.1-0.2-7.4-3.6-7.4-7.8C612.5,298,616.2,294.5,620.6,294.6C620.6,294.6,620.6,294.6,620.6,294.6z M568.7,310.9H597
		c1.4,0,2.6,1.1,2.6,2.5v6.3c0,1.4-1.2,2.5-2.6,2.5h-28.3c-1.4,0-2.6-1.1-2.6-2.5v-6.3C566.1,312,567.3,310.9,568.7,310.9
		L568.7,310.9z"/>
</g>
<path class="st2" d="M493.6,342.5c3.3,0,5.9-2.7,6-6V200.2h26.6l0,0c3-0.1,5.3-2.5,5.2-5.5c0-1.3-0.6-2.6-1.5-3.5l0,0l-0.1-0.1
	l-0.1-0.1l-50.8-50.9v-59c0-3-2.4-5.4-5.3-5.4h-29c-3,0-5.4,2.4-5.4,5.4v19.4L408.7,70c-4.3-4.3-5.1-5.1-7.7-5.2
	c-2.6,0.1-3.4,0.9-7.7,5.2l-30.6,30.5L323,140.1L272.2,191l-0.1,0.1l-0.1,0.1l0,0c-2,2.2-1.9,5.5,0.2,7.6c1,0.9,2.2,1.4,3.5,1.5l0,0
	h26.6v136.4c0,3.3,2.7,5.9,6,6L493.6,342.5z"/>
<g>
	<path class="st1" d="M366.5,216.2h18.1c4.1,0,7.4,3.3,7.4,7.4c0,0,0,0,0,0v18.1h-25.5V216.2z"/>
	<path class="st1" d="M338.3,216.2h18.1v25.5h-25.5v-18.1C330.9,219.5,334.2,216.2,338.3,216.2L338.3,216.2z"/>
	<path class="st1" d="M366.5,249.5H392v18.1c0,4.1-3.3,7.4-7.4,7.4c0,0,0,0,0,0h-18.1V249.5z"/>
	<path class="st1" d="M330.9,249.5h25.5V275h-18.1c-4.1,0-7.4-3.3-7.4-7.4c0,0,0,0,0,0V249.5z"/>
</g>
<line class="st3" x1="524.5" y1="341.2" x2="640.7" y2="341.2"/>
<path class="st1" d="M424.6,255.9h38.6c3.8,0,6.9,3.1,6.9,6.9v93.4l0,0h-52.4l0,0v-93.4C417.7,259,420.8,255.9,424.6,255.9
	C424.6,255.9,424.6,255.9,424.6,255.9z"/>
<g>
	<path class="st4" d="M444.1,276c3.9,0,7.1-3.2,7.1-7.1c0-3.9-3.2-7.1-7.1-7.1s-7.1,3.2-7.1,7.1l0,0C437,272.8,440.2,276,444.1,276
		C444.1,276,444.1,276,444.1,276z"/>
	<path class="st4" d="M443.1,342.5h3.3c1,0,1.9-0.8,1.9-1.9l4.5-32c2.1-0.2,3.6-1.9,3.6-4l-0.2-15.1c0.3-4.3-2.9-11.3-10.1-11.3
		h-4.6c-7.2,0-10.4,7-10.1,11.3l-0.2,15.1c0,2.1,1.6,3.8,3.6,4l4.4,32c0,1,0.8,1.9,1.9,1.9h1.9L443.1,342.5z"/>
</g>
<g class="st5">
	<path class="st4" d="M75.4,55.3c4.1,0,7.3,1.1,9.7,3.4c2.4,2.3,3.6,5.4,3.6,9.4c0,4.7-1.5,8.3-4.4,10.9c-2.9,2.5-7,3.8-12.4,3.8
		c-4.7,0-8.5-0.8-11.4-2.3v-7.7c1.5,0.8,3.3,1.5,5.3,2s3.9,0.8,5.7,0.8c5.4,0,8.2-2.2,8.2-6.7c0-4.2-2.8-6.4-8.4-6.4
		c-1,0-2.1,0.1-3.4,0.3c-1.2,0.2-2.2,0.4-3,0.6l-3.5-1.9L63,40.1h22.8v7.5h-15L70,55.9l1-0.2C72.2,55.4,73.6,55.3,75.4,55.3z"/>
	<path class="st4" d="M108.2,39.5c4,0,7.3,0.9,9.8,2.8c2.5,1.8,3.7,4.3,3.7,7.4c0,2.2-0.6,4.1-1.8,5.7c-1.2,1.7-3.1,3.2-5.8,4.5
		c3.1,1.7,5.4,3.5,6.8,5.3c1.4,1.8,2.1,3.8,2.1,6c0,3.5-1.4,6.2-4.1,8.3c-2.7,2.1-6.3,3.2-10.7,3.2c-4.6,0-8.2-1-10.9-2.9
		c-2.6-2-3.9-4.7-3.9-8.3c0-2.4,0.6-4.5,1.9-6.4c1.3-1.9,3.3-3.5,6.2-4.9c-2.4-1.5-4.1-3.1-5.2-4.9c-1.1-1.7-1.6-3.6-1.6-5.7
		c0-3,1.2-5.5,3.7-7.3C101,40.5,104.2,39.5,108.2,39.5z M101.7,71c0,1.7,0.6,2.9,1.7,3.9s2.7,1.4,4.7,1.4c2.2,0,3.9-0.5,5-1.4
		c1.1-1,1.6-2.2,1.6-3.8c0-1.3-0.5-2.5-1.6-3.6c-1.1-1.1-2.8-2.3-5.3-3.6C103.7,65.7,101.7,68.1,101.7,71z M108.2,46.1
		c-1.5,0-2.7,0.4-3.7,1.2c-0.9,0.8-1.4,1.8-1.4,3.1c0,1.2,0.4,2.2,1.1,3.1c0.7,0.9,2.1,1.8,4,2.8c1.9-0.9,3.2-1.8,3.9-2.7
		s1.1-2,1.1-3.2c0-1.3-0.5-2.4-1.4-3.1C110.9,46.4,109.7,46.1,108.2,46.1z"/>
	<path class="st4" d="M146.9,52.7c0,4.4-0.9,7.7-2.6,10c-1.7,2.2-4.2,3.3-7.5,3.3c-3.2,0-5.6-1.1-7.3-3.4c-1.7-2.3-2.6-5.6-2.6-9.9
		c0-8.8,3.3-13.2,9.9-13.2c3.2,0,5.7,1.1,7.5,3.4C146,45.2,146.9,48.4,146.9,52.7z M134.1,52.7c0,2.4,0.2,4.3,0.6,5.5
		c0.4,1.2,1.1,1.8,2.1,1.8c1.8,0,2.8-2.4,2.8-7.3c0-4.8-0.9-7.2-2.8-7.2c-1,0-1.7,0.6-2.1,1.8C134.3,48.5,134.1,50.3,134.1,52.7z
		 M166.7,40.1l-23.4,42.1h-6.9l23.4-42.1H166.7z M176.4,69.5c0,4.4-0.9,7.7-2.6,9.9c-1.7,2.2-4.2,3.3-7.5,3.3
		c-3.2,0-5.6-1.1-7.3-3.4c-1.7-2.3-2.6-5.6-2.6-9.8c0-8.8,3.3-13.2,9.9-13.2c3.2,0,5.7,1.1,7.5,3.4C175.5,62,176.4,65.3,176.4,69.5z
		 M163.6,69.5c0,2.4,0.2,4.3,0.6,5.5c0.4,1.2,1.1,1.8,2.1,1.8c1.8,0,2.8-2.4,2.8-7.3c0-4.8-0.9-7.2-2.8-7.2c-1,0-1.7,0.6-2.1,1.8
		C163.8,65.3,163.6,67.1,163.6,69.5z"/>
</g>
<g class="st5">
	<path class="st4" d="M60.4,96.8h6.7c3,0,5.2,0.4,6.6,1.3c1.4,0.9,2.1,2.2,2.1,4.1c0,1.3-0.3,2.3-0.9,3.1s-1.4,1.3-2.4,1.5v0.1
		c1.4,0.3,2.3,0.9,2.9,1.7s0.9,1.9,0.9,3.3c0,2-0.7,3.5-2.1,4.6s-3.3,1.6-5.7,1.6h-8V96.8z M64.9,105.3h2.6c1.2,0,2.1-0.2,2.7-0.6
		s0.8-1,0.8-1.9c0-0.8-0.3-1.4-0.9-1.8s-1.6-0.5-2.8-0.5h-2.4V105.3z M64.9,108.9v5.6h3c1.2,0,2.2-0.2,2.8-0.7s0.9-1.2,0.9-2.2
		c0-1.8-1.3-2.7-3.8-2.7H64.9z"/>
	<path class="st4" d="M91.8,118.2l-0.6-2.1H91c-0.5,0.8-1.2,1.4-2,1.8c-0.9,0.4-1.9,0.6-3,0.6c-1.9,0-3.4-0.5-4.4-1.5
		s-1.5-2.5-1.5-4.4v-10.7h4.5v9.6c0,1.2,0.2,2.1,0.6,2.7s1.1,0.9,2,0.9c1.2,0,2.2-0.4,2.7-1.3c0.6-0.8,0.8-2.2,0.8-4.2v-7.7h4.5
		v16.4H91.8z"/>
	<path class="st4" d="M109,101.5c0.6,0,1.1,0,1.5,0.1l-0.3,4.2c-0.4-0.1-0.8-0.1-1.3-0.1c-1.4,0-2.5,0.4-3.3,1.1s-1.2,1.8-1.2,3.1
		v8.3h-4.5v-16.4h3.4l0.7,2.8h0.2c0.5-0.9,1.2-1.7,2.1-2.2S108,101.5,109,101.5z"/>
	<path class="st4" d="M127.8,101.8v2.3l-2.6,0.7c0.5,0.7,0.7,1.6,0.7,2.5c0,1.8-0.6,3.1-1.8,4.1c-1.2,1-2.9,1.5-5.1,1.5l-0.8,0
		l-0.7-0.1c-0.5,0.4-0.7,0.7-0.7,1.2c0,0.6,0.8,1,2.5,1h2.8c1.8,0,3.2,0.4,4.1,1.2s1.4,1.9,1.4,3.4c0,1.9-0.8,3.4-2.4,4.5
		s-3.9,1.6-6.9,1.6c-2.3,0-4-0.4-5.2-1.2c-1.2-0.8-1.8-1.9-1.8-3.3c0-1,0.3-1.8,0.9-2.5s1.5-1.1,2.7-1.4c-0.5-0.2-0.9-0.5-1.2-1
		s-0.5-0.9-0.5-1.4c0-0.6,0.2-1.1,0.5-1.6c0.4-0.4,0.9-0.8,1.6-1.2c-0.9-0.4-1.5-1-2-1.8s-0.8-1.8-0.8-2.9c0-1.8,0.6-3.2,1.7-4.1
		s2.8-1.5,5-1.5c0.5,0,1,0,1.6,0.1c0.6,0.1,1,0.1,1.2,0.2H127.8z M115.1,120.5c0,0.6,0.3,1.1,0.9,1.5s1.4,0.5,2.5,0.5
		c1.6,0,2.9-0.2,3.8-0.7s1.4-1,1.4-1.8c0-0.6-0.3-1-0.8-1.3s-1.4-0.4-2.5-0.4H118c-0.8,0-1.5,0.2-2.1,0.6S115.1,119.9,115.1,120.5z
		 M116.8,107.2c0,0.9,0.2,1.6,0.6,2.1s1,0.8,1.9,0.8c0.8,0,1.5-0.3,1.8-0.8s0.6-1.2,0.6-2.1c0-2-0.8-3-2.4-3
		C117.6,104.2,116.8,105.2,116.8,107.2z"/>
	<path class="st4" d="M134.9,118.2h-4.5V95.4h4.5V118.2z"/>
	<path class="st4" d="M150,118.2l-0.9-2.2h-0.1c-0.8,0.9-1.5,1.6-2.3,2c-0.8,0.4-1.8,0.5-3.1,0.5c-1.6,0-2.8-0.4-3.7-1.3
		s-1.4-2.2-1.4-3.8c0-1.7,0.6-3,1.8-3.8c1.2-0.8,3-1.3,5.5-1.4l2.8-0.1v-0.7c0-1.7-0.8-2.5-2.5-2.5c-1.3,0-2.8,0.4-4.6,1.2l-1.5-3
		c1.9-1,4-1.5,6.3-1.5c2.2,0,3.9,0.5,5.1,1.4s1.8,2.4,1.8,4.4v10.9H150z M148.7,110.6l-1.7,0.1c-1.3,0-2.3,0.3-2.9,0.7s-1,1.1-1,2
		c0,1.3,0.7,1.9,2.2,1.9c1,0,1.9-0.3,2.5-0.9s0.9-1.4,0.9-2.4V110.6z"/>
	<path class="st4" d="M166.9,101.5c0.6,0,1.1,0,1.5,0.1l-0.3,4.2c-0.4-0.1-0.8-0.1-1.3-0.1c-1.4,0-2.5,0.4-3.3,1.1s-1.2,1.8-1.2,3.1
		v8.3h-4.5v-16.4h3.4l0.7,2.8h0.2c0.5-0.9,1.2-1.7,2.1-2.2S165.9,101.5,166.9,101.5z"/>
	<path class="st4" d="M171.2,97.6c0-1.5,0.8-2.2,2.4-2.2s2.4,0.7,2.4,2.2c0,0.7-0.2,1.2-0.6,1.6c-0.4,0.4-1,0.6-1.8,0.6
		C172,99.8,171.2,99.1,171.2,97.6z M175.8,118.2h-4.5v-16.4h4.5V118.2z"/>
	<path class="st4" d="M187.9,118.5c-2.6,0-4.7-0.7-6.2-2.2s-2.2-3.5-2.2-6.2c0-2.7,0.7-4.9,2.1-6.4s3.3-2.2,5.7-2.2
		c2.3,0,4.1,0.7,5.4,2s1.9,3.1,1.9,5.5v2.2h-10.6c0,1.3,0.4,2.3,1.1,3s1.7,1.1,3,1.1c1,0,1.9-0.1,2.8-0.3s1.8-0.5,2.8-1v3.5
		c-0.8,0.4-1.6,0.7-2.5,0.9C190.3,118.4,189.2,118.5,187.9,118.5z M187.3,104.7c-0.9,0-1.7,0.3-2.2,0.9c-0.5,0.6-0.8,1.5-0.9,2.6
		h6.3c0-1.1-0.3-2-0.9-2.6C189,105,188.3,104.7,187.3,104.7z"/>
	<path class="st4" d="M209.7,113.3c0,1.7-0.6,3-1.8,3.8s-2.9,1.3-5.2,1.3c-1.2,0-2.2-0.1-3-0.2c-0.8-0.2-1.6-0.4-2.4-0.7v-3.7
		c0.8,0.4,1.8,0.7,2.8,1s2,0.4,2.7,0.4c1.6,0,2.4-0.5,2.4-1.4c0-0.4-0.1-0.6-0.3-0.9c-0.2-0.2-0.6-0.5-1.1-0.7
		c-0.5-0.3-1.2-0.6-2.1-1c-1.3-0.5-2.2-1-2.8-1.5s-1-1-1.3-1.5c-0.3-0.6-0.4-1.3-0.4-2.1c0-1.5,0.6-2.6,1.7-3.4s2.7-1.2,4.8-1.2
		c2,0,3.9,0.4,5.8,1.3l-1.3,3.2c-0.8-0.4-1.6-0.6-2.3-0.9s-1.4-0.3-2.2-0.3c-1.3,0-2,0.4-2,1.1c0,0.4,0.2,0.7,0.6,1s1.4,0.7,2.8,1.3
		c1.3,0.5,2.2,1,2.8,1.5s1,1,1.3,1.6S209.7,112.5,209.7,113.3z"/>
</g>
<g class="st5">
	<path class="st4" d="M75.2,154.2h-4.5v-9.6c0-2.4-0.9-3.5-2.6-3.5c-1.2,0-2.2,0.4-2.7,1.3s-0.8,2.2-0.8,4.1v7.7H60v-22.8h4.5v4.6
		c0,0.4,0,1.2-0.1,2.5l-0.1,1.3h0.2c1-1.6,2.6-2.4,4.7-2.4c1.9,0,3.4,0.5,4.4,1.6s1.5,2.5,1.5,4.5V154.2z"/>
	<path class="st4" d="M90.2,154.2l-0.9-2.2h-0.1c-0.8,0.9-1.5,1.6-2.3,2c-0.8,0.4-1.8,0.5-3.1,0.5c-1.6,0-2.8-0.4-3.7-1.3
		s-1.4-2.2-1.4-3.8c0-1.7,0.6-3,1.8-3.8c1.2-0.8,3-1.3,5.5-1.4l2.8-0.1v-0.7c0-1.7-0.8-2.5-2.5-2.5c-1.3,0-2.8,0.4-4.6,1.2l-1.5-3
		c1.9-1,4-1.5,6.3-1.5c2.2,0,3.9,0.5,5.1,1.4s1.8,2.4,1.8,4.4v10.9H90.2z M88.8,146.6l-1.7,0.1c-1.3,0-2.3,0.3-2.9,0.7s-1,1.1-1,2
		c0,1.3,0.7,1.9,2.2,1.9c1,0,1.9-0.3,2.5-0.9s0.9-1.4,0.9-2.4V146.6z"/>
	<path class="st4" d="M106.9,154.5c-1.9,0-3.4-0.7-4.5-2.1h-0.2c0.2,1.4,0.2,2.2,0.2,2.4v6.6h-4.5v-23.6h3.6l0.6,2.1h0.2
		c1-1.6,2.6-2.4,4.6-2.4c1.9,0,3.4,0.7,4.5,2.2s1.6,3.6,1.6,6.2c0,1.7-0.3,3.3-0.8,4.6s-1.2,2.3-2.2,2.9S108.1,154.5,106.9,154.5z
		 M105.5,141.1c-1.1,0-1.9,0.3-2.4,1s-0.8,1.8-0.8,3.4v0.5c0,1.8,0.3,3,0.8,3.8s1.4,1.1,2.5,1.1c2,0,3-1.7,3-5
		c0-1.6-0.2-2.8-0.7-3.6C107.4,141.5,106.6,141.1,105.5,141.1z"/>
	<path class="st4" d="M125.8,154.5c-1.9,0-3.4-0.7-4.5-2.1h-0.2c0.2,1.4,0.2,2.2,0.2,2.4v6.6h-4.5v-23.6h3.6l0.6,2.1h0.2
		c1-1.6,2.6-2.4,4.6-2.4c1.9,0,3.4,0.7,4.5,2.2s1.6,3.6,1.6,6.2c0,1.7-0.3,3.3-0.8,4.6s-1.2,2.3-2.2,2.9S127.1,154.5,125.8,154.5z
		 M124.5,141.1c-1.1,0-1.9,0.3-2.4,1s-0.8,1.8-0.8,3.4v0.5c0,1.8,0.3,3,0.8,3.8s1.4,1.1,2.5,1.1c2,0,3-1.7,3-5
		c0-1.6-0.2-2.8-0.7-3.6C126.4,141.5,125.6,141.1,124.5,141.1z"/>
	<path class="st4" d="M143.3,154.5c-2.6,0-4.7-0.7-6.2-2.2s-2.2-3.5-2.2-6.2c0-2.7,0.7-4.9,2.1-6.4s3.3-2.2,5.7-2.2
		c2.3,0,4.1,0.7,5.4,2s1.9,3.1,1.9,5.5v2.2h-10.6c0,1.3,0.4,2.3,1.1,3s1.7,1.1,3,1.1c1,0,1.9-0.1,2.8-0.3s1.8-0.5,2.8-1v3.5
		c-0.8,0.4-1.6,0.7-2.5,0.9C145.6,154.4,144.5,154.5,143.3,154.5z M142.6,140.7c-0.9,0-1.7,0.3-2.2,0.9c-0.5,0.6-0.8,1.5-0.9,2.6
		h6.3c0-1.1-0.3-2-0.9-2.6C144.3,141,143.6,140.7,142.6,140.7z"/>
	<path class="st4" d="M168.7,154.2h-4.5v-9.6c0-1.2-0.2-2.1-0.6-2.7c-0.4-0.6-1.1-0.9-2-0.9c-1.2,0-2.2,0.4-2.7,1.3
		c-0.6,0.8-0.8,2.2-0.8,4.2v7.7h-4.5v-16.4h3.4l0.6,2.1h0.2c0.5-0.8,1.2-1.4,2.1-1.8s1.9-0.6,3-0.6c1.9,0,3.3,0.5,4.3,1.5
		s1.5,2.5,1.5,4.5V154.2z"/>
	<path class="st4" d="M194.5,154.2l-1.3-5.7l-1.7-7.2h-0.1l-3,13h-4.8l-4.7-16.4h4.5l1.9,7.3c0.3,1.3,0.6,3.1,0.9,5.4h0.1
		c0-0.7,0.2-1.9,0.5-3.5l0.2-1.2l2-7.9h4.9l1.9,7.9c0,0.2,0.1,0.5,0.2,1s0.2,0.9,0.2,1.3s0.1,0.9,0.2,1.4c0.1,0.5,0.1,0.8,0.1,1.1
		h0.1c0.1-0.7,0.2-1.7,0.5-2.9s0.4-2.1,0.5-2.5l2-7.3h4.4l-4.7,16.4H194.5z"/>
	<path class="st4" d="M221.9,154.2h-4.5v-9.6c0-2.4-0.9-3.5-2.6-3.5c-1.2,0-2.2,0.4-2.7,1.3s-0.8,2.2-0.8,4.1v7.7h-4.5v-22.8h4.5
		v4.6c0,0.4,0,1.2-0.1,2.5l-0.1,1.3h0.2c1-1.6,2.6-2.4,4.7-2.4c1.9,0,3.4,0.5,4.4,1.6s1.5,2.5,1.5,4.5V154.2z"/>
	<path class="st4" d="M233.9,154.5c-2.6,0-4.7-0.7-6.2-2.2s-2.2-3.5-2.2-6.2c0-2.7,0.7-4.9,2.1-6.4s3.3-2.2,5.7-2.2
		c2.3,0,4.1,0.7,5.4,2s1.9,3.1,1.9,5.5v2.2H230c0,1.3,0.4,2.3,1.1,3s1.7,1.1,3,1.1c1,0,1.9-0.1,2.8-0.3s1.8-0.5,2.8-1v3.5
		c-0.8,0.4-1.6,0.7-2.5,0.9C236.2,154.4,235.2,154.5,233.9,154.5z M233.3,140.7c-0.9,0-1.7,0.3-2.2,0.9c-0.5,0.6-0.8,1.5-0.9,2.6
		h6.3c0-1.1-0.3-2-0.9-2.6C235,141,234.2,140.7,233.3,140.7z"/>
	<path class="st4" d="M259.3,154.2h-4.5v-9.6c0-1.2-0.2-2.1-0.6-2.7c-0.4-0.6-1.1-0.9-2-0.9c-1.2,0-2.2,0.4-2.7,1.3
		c-0.6,0.8-0.8,2.2-0.8,4.2v7.7h-4.5v-16.4h3.4l0.6,2.1h0.2c0.5-0.8,1.2-1.4,2.1-1.8s1.9-0.6,3-0.6c1.9,0,3.3,0.5,4.3,1.5
		s1.5,2.5,1.5,4.5V154.2z"/>
</g>
<g class="st5">
	<path class="st4" d="M69,190.5c-1.9,0-3.4-0.7-4.5-2.1h-0.2c0.2,1.4,0.2,2.2,0.2,2.4v6.6H60v-23.6h3.6l0.6,2.1h0.2
		c1-1.6,2.6-2.4,4.6-2.4c1.9,0,3.4,0.7,4.5,2.2s1.6,3.6,1.6,6.2c0,1.7-0.3,3.3-0.8,4.6s-1.2,2.3-2.2,2.9S70.3,190.5,69,190.5z
		 M67.7,177.1c-1.1,0-1.9,0.3-2.4,1s-0.8,1.8-0.8,3.4v0.5c0,1.8,0.3,3,0.8,3.8s1.4,1.1,2.5,1.1c2,0,3-1.7,3-5c0-1.6-0.2-2.8-0.7-3.6
		C69.5,177.5,68.8,177.1,67.7,177.1z"/>
	<path class="st4" d="M86.4,190.5c-2.6,0-4.7-0.7-6.2-2.2s-2.2-3.5-2.2-6.2c0-2.7,0.7-4.9,2.1-6.4s3.3-2.2,5.7-2.2
		c2.3,0,4.1,0.7,5.4,2s1.9,3.1,1.9,5.5v2.2H82.5c0,1.3,0.4,2.3,1.1,3s1.7,1.1,3,1.1c1,0,1.9-0.1,2.8-0.3s1.8-0.5,2.8-1v3.5
		c-0.8,0.4-1.6,0.7-2.5,0.9C88.8,190.4,87.7,190.5,86.4,190.5z M85.8,176.7c-0.9,0-1.7,0.3-2.2,0.9c-0.5,0.6-0.8,1.5-0.9,2.6h6.3
		c0-1.1-0.3-2-0.9-2.6C87.5,177,86.7,176.7,85.8,176.7z"/>
	<path class="st4" d="M111.6,182c0,2.7-0.7,4.8-2.1,6.3s-3.4,2.3-5.9,2.3c-1.6,0-3-0.3-4.2-1c-1.2-0.7-2.1-1.7-2.8-3s-1-2.8-1-4.5
		c0-2.7,0.7-4.8,2.1-6.2s3.4-2.2,5.9-2.2c1.6,0,3,0.3,4.2,1s2.1,1.7,2.8,2.9S111.6,180.3,111.6,182z M100.3,182
		c0,1.6,0.3,2.8,0.8,3.7s1.4,1.2,2.6,1.2c1.2,0,2-0.4,2.6-1.2s0.8-2.1,0.8-3.7c0-1.6-0.3-2.8-0.8-3.6s-1.4-1.2-2.6-1.2
		c-1.2,0-2.1,0.4-2.6,1.2C100.6,179.1,100.3,180.4,100.3,182z"/>
	<path class="st4" d="M124.3,190.5c-1.9,0-3.4-0.7-4.5-2.1h-0.2c0.2,1.4,0.2,2.2,0.2,2.4v6.6h-4.5v-23.6h3.6l0.6,2.1h0.2
		c1-1.6,2.6-2.4,4.6-2.4c1.9,0,3.4,0.7,4.5,2.2s1.6,3.6,1.6,6.2c0,1.7-0.3,3.3-0.8,4.6s-1.2,2.3-2.2,2.9S125.6,190.5,124.3,190.5z
		 M123,177.1c-1.1,0-1.9,0.3-2.4,1s-0.8,1.8-0.8,3.4v0.5c0,1.8,0.3,3,0.8,3.8s1.4,1.1,2.5,1.1c2,0,3-1.7,3-5c0-1.6-0.2-2.8-0.7-3.6
		C124.8,177.5,124,177.1,123,177.1z"/>
	<path class="st4" d="M138.8,190.2h-4.5v-22.8h4.5V190.2z"/>
	<path class="st4" d="M150.9,190.5c-2.6,0-4.7-0.7-6.2-2.2s-2.2-3.5-2.2-6.2c0-2.7,0.7-4.9,2.1-6.4s3.3-2.2,5.7-2.2
		c2.3,0,4.1,0.7,5.4,2s1.9,3.1,1.9,5.5v2.2H147c0,1.3,0.4,2.3,1.1,3s1.7,1.1,3,1.1c1,0,1.9-0.1,2.8-0.3s1.8-0.5,2.8-1v3.5
		c-0.8,0.4-1.6,0.7-2.5,0.9C153.2,190.4,152.1,190.5,150.9,190.5z M150.2,176.7c-0.9,0-1.7,0.3-2.2,0.9c-0.5,0.6-0.8,1.5-0.9,2.6
		h6.3c0-1.1-0.3-2-0.9-2.6C151.9,177,151.2,176.7,150.2,176.7z"/>
	<path class="st4" d="M179.4,190.2l-0.9-2.2h-0.1c-0.8,0.9-1.5,1.6-2.3,2c-0.8,0.4-1.8,0.5-3.1,0.5c-1.6,0-2.8-0.4-3.7-1.3
		s-1.4-2.2-1.4-3.8c0-1.7,0.6-3,1.8-3.8c1.2-0.8,3-1.3,5.5-1.4l2.8-0.1v-0.7c0-1.7-0.8-2.5-2.5-2.5c-1.3,0-2.8,0.4-4.6,1.2l-1.5-3
		c1.9-1,4-1.5,6.3-1.5c2.2,0,3.9,0.5,5.1,1.4s1.8,2.4,1.8,4.4v10.9H179.4z M178.1,182.6l-1.7,0.1c-1.3,0-2.3,0.3-2.9,0.7s-1,1.1-1,2
		c0,1.3,0.7,1.9,2.2,1.9c1,0,1.9-0.3,2.5-0.9s0.9-1.4,0.9-2.4V182.6z"/>
	<path class="st4" d="M196.2,173.5c0.6,0,1.1,0,1.5,0.1l-0.3,4.2c-0.4-0.1-0.8-0.1-1.3-0.1c-1.4,0-2.5,0.4-3.3,1.1s-1.2,1.8-1.2,3.1
		v8.3h-4.5v-16.4h3.4l0.7,2.8h0.2c0.5-0.9,1.2-1.7,2.1-2.2S195.2,173.5,196.2,173.5z"/>
	<path class="st4" d="M208.1,190.5c-2.6,0-4.7-0.7-6.2-2.2s-2.2-3.5-2.2-6.2c0-2.7,0.7-4.9,2.1-6.4s3.3-2.2,5.7-2.2
		c2.3,0,4.1,0.7,5.4,2s1.9,3.1,1.9,5.5v2.2h-10.6c0,1.3,0.4,2.3,1.1,3s1.7,1.1,3,1.1c1,0,1.9-0.1,2.8-0.3s1.8-0.5,2.8-1v3.5
		c-0.8,0.4-1.6,0.7-2.5,0.9C210.5,190.4,209.4,190.5,208.1,190.5z M207.5,176.7c-0.9,0-1.7,0.3-2.2,0.9c-0.5,0.6-0.8,1.5-0.9,2.6
		h6.3c0-1.1-0.3-2-0.9-2.6C209.2,177,208.4,176.7,207.5,176.7z"/>
	<path class="st4" d="M236.6,190.2l-0.9-2.2h-0.1c-0.8,0.9-1.5,1.6-2.3,2c-0.8,0.4-1.8,0.5-3.1,0.5c-1.6,0-2.8-0.4-3.7-1.3
		s-1.4-2.2-1.4-3.8c0-1.7,0.6-3,1.8-3.8c1.2-0.8,3-1.3,5.5-1.4l2.8-0.1v-0.7c0-1.7-0.8-2.5-2.5-2.5c-1.3,0-2.8,0.4-4.6,1.2l-1.5-3
		c1.9-1,4-1.5,6.3-1.5c2.2,0,3.9,0.5,5.1,1.4s1.8,2.4,1.8,4.4v10.9H236.6z M235.3,182.6l-1.7,0.1c-1.3,0-2.3,0.3-2.9,0.7s-1,1.1-1,2
		c0,1.3,0.7,1.9,2.2,1.9c1,0,1.9-0.3,2.5-0.9s0.9-1.4,0.9-2.4V182.6z"/>
	<path class="st4" d="M251.3,186.9c0.8,0,1.7-0.2,2.8-0.5v3.3c-1.1,0.5-2.5,0.7-4.1,0.7c-1.8,0-3.1-0.5-3.9-1.4
		c-0.8-0.9-1.2-2.3-1.2-4.1v-7.9h-2.1v-1.9l2.5-1.5l1.3-3.5h2.9v3.5h4.6v3.4h-4.6v7.9c0,0.6,0.2,1.1,0.5,1.4
		S250.7,186.9,251.3,186.9z"/>
</g>
<g class="st5">
	<path class="st4" d="M75.2,226.2h-4.5v-9.6c0-2.4-0.9-3.5-2.6-3.5c-1.2,0-2.2,0.4-2.7,1.3s-0.8,2.2-0.8,4.1v7.7H60v-22.8h4.5v4.6
		c0,0.4,0,1.2-0.1,2.5l-0.1,1.3h0.2c1-1.6,2.6-2.4,4.7-2.4c1.9,0,3.4,0.5,4.4,1.6s1.5,2.5,1.5,4.5V226.2z"/>
	<path class="st4" d="M94.6,218c0,2.7-0.7,4.8-2.1,6.3s-3.4,2.3-5.9,2.3c-1.6,0-3-0.3-4.2-1c-1.2-0.7-2.1-1.7-2.8-3s-1-2.8-1-4.5
		c0-2.7,0.7-4.8,2.1-6.2s3.4-2.2,5.9-2.2c1.6,0,3,0.3,4.2,1s2.1,1.7,2.8,2.9S94.6,216.3,94.6,218z M83.3,218c0,1.6,0.3,2.8,0.8,3.7
		s1.4,1.2,2.6,1.2c1.2,0,2-0.4,2.6-1.2s0.8-2.1,0.8-3.7c0-1.6-0.3-2.8-0.8-3.6s-1.4-1.2-2.6-1.2c-1.2,0-2.1,0.4-2.6,1.2
		C83.6,215.1,83.3,216.4,83.3,218z"/>
	<path class="st4" d="M113,226.2h-4.5v-9.6c0-1.2-0.2-2.1-0.6-2.7c-0.4-0.6-1-0.9-1.9-0.9c-1.1,0-2,0.4-2.5,1.3s-0.8,2.2-0.8,4.1
		v7.7h-4.5v-16.4h3.4l0.6,2.1h0.2c0.4-0.8,1.1-1.3,1.9-1.8c0.8-0.4,1.8-0.6,2.9-0.6c2.5,0,4.1,0.8,5,2.4h0.4
		c0.4-0.8,1.1-1.4,1.9-1.8s1.8-0.6,2.9-0.6c1.9,0,3.3,0.5,4.2,1.4c1,1,1.4,2.5,1.4,4.6v10.7h-4.5v-9.6c0-1.2-0.2-2.1-0.6-2.7
		c-0.4-0.6-1-0.9-1.9-0.9c-1.1,0-1.9,0.4-2.5,1.2s-0.8,2-0.8,3.7V226.2z"/>
	<path class="st4" d="M135.2,226.5c-2.6,0-4.7-0.7-6.2-2.2s-2.2-3.5-2.2-6.2c0-2.7,0.7-4.9,2.1-6.4s3.3-2.2,5.7-2.2
		c2.3,0,4.1,0.7,5.4,2s1.9,3.1,1.9,5.5v2.2h-10.6c0,1.3,0.4,2.3,1.1,3s1.7,1.1,3,1.1c1,0,1.9-0.1,2.8-0.3s1.8-0.5,2.8-1v3.5
		c-0.8,0.4-1.6,0.7-2.5,0.9C137.6,226.4,136.5,226.5,135.2,226.5z M134.6,212.7c-0.9,0-1.7,0.3-2.2,0.9c-0.5,0.6-0.8,1.5-0.9,2.6
		h6.3c0-1.1-0.3-2-0.9-2.6C136.3,213,135.5,212.7,134.6,212.7z"/>
</g>
</svg>
