<svg id="Layer_1" data-name="Layer 1" xmlns="http://www.w3.org/2000/svg" viewBox="0 0 700 400">
  <defs>
    <style>
      .cls-1, .cls-10 {
        fill: none;
        stroke: #fff;
      }

      .cls-1, .cls-10, .cls-4 {
        stroke-miterlimit: 10;
      }

      .cls-1 {
        stroke-width: 5.74px;
        fill-rule: evenodd;
        opacity: 0.1;
      }

      .cls-2 {
        fill: #fff;
      }

      .cls-3, .cls-4 {
        fill: #206095;
      }

      .cls-4 {
        stroke: #014462;
        stroke-width: 5.13px;
      }

      .cls-5, .cls-6 {
        fill: #014462;
      }

      .cls-6 {
        font-size: 59px;
        font-family: OpenSans-Bold, Open Sans;
        font-weight: 700;
      }

      .cls-7 {
        font-size: 30px;
      }

      .cls-8 {
        fill: #d0d2d3;
      }

      .cls-9 {
        fill: #f93;
      }

      .cls-10 {
        stroke-width: 3px;
      }
    </style>
  </defs>
  <title>Burglary_Slider_v1</title>
  <path class="cls-1" d="M402.52,271l.15.18a2.68,2.68,0,0,0-.07-.27l-.08.09Z"/>
  <g>
    <polygon class="cls-2" points="554.14 299.5 570.8 276.43 634.87 276.43 650.25 300.78 655.37 312.31 655.37 341.79 547.73 341.79 549.01 313.6 554.14 299.5"/>
    <path class="cls-3" d="M576.67,270.84c-4.41,0-6.59,1.43-9,4.27a202.47,202.47,0,0,0-11.91,17.08h-13c-.55,0-2.1-.13-2.1,2.14v2.14a4.35,4.35,0,0,0,4.48,4.27h6s-5.89,10.58-5.89,21.35v34.17a4.7,4.7,0,0,0,4.48,4.28h9a4.89,4.89,0,0,0,4.48-4.28v-8.54h80.56v8.54a4.88,4.88,0,0,0,4.47,4.28h9a4.7,4.7,0,0,0,4.48-4.28V322.09c0-10-5.88-21.35-5.88-21.35h6a4.35,4.35,0,0,0,4.48-4.27v-2.14c0-2.27-1.55-2.14-2.09-2.14h-13a144.06,144.06,0,0,0-11.91-17.08c-2.38-2.84-4.56-4.27-9-4.27Zm.84,7.74h52c1.51,0,3.68.55,5.46,3.34a136.5,136.5,0,0,1,9.11,14.15c1.67,2.59-.13,4.27-1.82,4.27H564.76c-1.68,0-3.49-1.68-1.82-4.27,2.85-4.72,5.73-9.44,9.11-14.15,1.78-2.79,4-3.34,5.46-3.34Zm-14.43,30.83a8.71,8.71,0,0,1,9,8.41,6.83,6.83,0,0,1-.29,1.87,7.72,7.72,0,0,1-.42,1.34c0,.08-.09.18-.13.27a8.49,8.49,0,0,1-.71,1.33,9.86,9.86,0,0,1-1,1.07,8.83,8.83,0,0,1-6.31,2.66,9.08,9.08,0,0,1-2-.39,10.65,10.65,0,0,1-1.41-.27l-.27-.13a9,9,0,0,1-1.12-.68,7,7,0,0,1-1.27-.8c-.07,0-.07-.19-.13-.26s-.21-.07-.29-.14a8,8,0,0,1-2.66-5.87,8.71,8.71,0,0,1,9-8.41Zm80.7.41a8.28,8.28,0,1,1-8.7,8.27,8.46,8.46,0,0,1,8.7-8.27Zm-55.35,17.35h30.13a2.74,2.74,0,0,1,2.79,2.67v6.67a2.74,2.74,0,0,1-2.79,2.67H588.43a2.75,2.75,0,0,1-2.8-2.67v-6.67a2.75,2.75,0,0,1,2.8-2.67Zm0,0"/>
  </g>
  <path class="cls-3" d="M508.32,360.91a6.39,6.39,0,0,0,6.36-6.36V209.19h28.39v0a5.72,5.72,0,0,0,4-9.65h0l-.09-.09-.08-.08L492.7,145.05V82.19A5.75,5.75,0,0,0,487,76.44H456.1a5.76,5.76,0,0,0-5.75,5.75l0,20.66L417.8,70.32c-4.57-4.58-5.48-5.42-8.21-5.52-2.74.1-3.64.94-8.21,5.52l-32.6,32.52-42.3,42.21-54.21,54.28-.08.08-.09.09h0a5.72,5.72,0,0,0,4,9.65v0H304.5V354.55a6.39,6.39,0,0,0,6.36,6.36Z"/>
  <g>
    <path class="cls-2" d="M372.88,226.18h19.31a7.88,7.88,0,0,1,7.88,7.88v19.31H372.88Z"/>
    <path class="cls-2" d="M342.75,226.18h19.31v27.19H334.87V234.06A7.88,7.88,0,0,1,342.75,226.18Z"/>
    <path class="cls-2" d="M372.88,261.73h27.19V281a7.88,7.88,0,0,1-7.88,7.89H372.88Z"/>
    <path class="cls-2" d="M334.87,261.73h27.19v27.2H342.75a7.88,7.88,0,0,1-7.88-7.89Z"/>
  </g>
  <line class="cls-4" x1="541.3" y1="359.52" x2="665.22" y2="359.52"/>
  <path class="cls-2" d="M434.77,268.58h41.15a7.36,7.36,0,0,1,7.36,7.36v99.61a0,0,0,0,1,0,0H427.4a0,0,0,0,1,0,0V275.94A7.36,7.36,0,0,1,434.77,268.58Z"/>
  <g>
    <path class="cls-5" d="M455.6,290a7.62,7.62,0,1,0-7.62-7.62A7.61,7.61,0,0,0,455.6,290Z"/>
    <path class="cls-5" d="M454.48,360.91H458a2,2,0,0,0,2-2l4.84-34.09a4.25,4.25,0,0,0,3.88-4.23l-.19-16.14c.32-4.6-3.11-12-10.8-12h-4.9c-7.69,0-11.12,7.44-10.81,12l-.18,16.14a4.24,4.24,0,0,0,3.87,4.23l4.65,34.09a2,2,0,0,0,2,2h2Z"/>
  </g>
  <text class="cls-6" transform="translate(37.69 82.21)">00%<tspan class="cls-7"><tspan x="0" y="36">Burglaries </tspan><tspan x="0" y="72">happen when </tspan><tspan x="0" y="108">people are at </tspan><tspan x="0" y="144">home</tspan></tspan></text>
  <g>
    <path class="cls-8" d="M9.86,5.15a5,5,0,1,1,10,0v389.7a5,5,0,1,1-9.95,0Z"/>
    <circle class="cls-9" cx="15" cy="200" r="12.22"/>
    <polygon class="cls-2" points="15.8 194.18 23.8 200 15.8 205.82 15.8 194.18"/>
    <polygon class="cls-2" points="14.2 194.18 6.2 200 14.2 205.82 14.2 194.18"/>
    <line class="cls-10" x1="8.18" y1="200" x2="21.82" y2="200"/>
  </g>
</svg>
